<svg width="240" height="73" viewBox="0 0 240 73" fill="none" xmlns="http://www.w3.org/2000/svg">
<g clip-path="url(#clip0)">
<path d="M234.336 44.955C234.336 44.4528 234.485 43.962 234.764 43.5445C235.043 43.1271 235.439 42.8017 235.903 42.6095C236.367 42.4174 236.877 42.3671 237.37 42.465C237.862 42.563 238.315 42.8048 238.67 43.1598C239.025 43.5149 239.267 43.9672 239.365 44.4597C239.462 44.9521 239.412 45.4626 239.22 45.9265C239.028 46.3904 238.703 46.7868 238.285 47.0658C237.868 47.3448 237.377 47.4936 236.875 47.4936C236.201 47.4936 235.556 47.2262 235.08 46.7501C234.603 46.274 234.336 45.6283 234.336 44.955Z" fill="white"/>
<path d="M234.818 34.5146L235.452 35.7142C235.244 35.8901 235.078 36.1113 234.968 36.361C234.858 36.6107 234.807 36.8823 234.818 37.1549C234.805 37.6251 234.978 38.0813 235.3 38.4242C235.458 38.5899 235.65 38.7202 235.862 38.8066C236.074 38.893 236.302 38.9336 236.531 38.9256C236.753 38.9346 236.974 38.8963 237.18 38.8131C237.386 38.7299 237.571 38.6039 237.724 38.4433C237.884 38.2741 238.007 38.0744 238.086 37.8562C238.166 37.638 238.201 37.4059 238.188 37.1739C238.206 36.8912 238.158 36.6081 238.048 36.347C237.938 36.086 237.768 35.8541 237.553 35.6698L238.34 34.6035C238.689 34.9085 238.973 35.2797 239.177 35.6955C239.381 36.1113 239.5 36.5636 239.528 37.0259C239.556 37.4882 239.492 37.9515 239.339 38.3887C239.186 38.826 238.948 39.2285 238.638 39.573C238.167 40.0351 237.556 40.3285 236.901 40.4077C236.245 40.4869 235.582 40.3474 235.014 40.0109C234.543 39.7365 234.16 39.3337 233.91 38.8495C233.639 38.3376 233.502 37.7657 233.51 37.1866C233.502 36.6548 233.619 36.1285 233.853 35.6507C234.072 35.1959 234.404 34.8048 234.818 34.5146Z" fill="white"/>
<path d="M233.51 30.5289C233.511 29.9945 233.651 29.4696 233.916 29.0057C234.175 28.5412 234.557 28.157 235.02 27.895C235.475 27.6303 235.992 27.4923 236.518 27.4952C237.05 27.4929 237.573 27.6308 238.035 27.895C238.501 28.1522 238.887 28.5319 239.152 28.993C239.417 29.4609 239.553 29.9911 239.546 30.5289C239.552 30.9205 239.477 31.3091 239.326 31.6705C239.176 32.032 238.952 32.3585 238.67 32.6297C238.249 33.0467 237.715 33.3308 237.134 33.4466C236.552 33.5624 235.95 33.5047 235.402 33.2809C234.853 33.057 234.382 32.6767 234.048 32.1874C233.714 31.6981 233.531 31.1213 233.522 30.5289H233.51ZM234.862 30.5289C234.861 30.7345 234.904 30.938 234.987 31.126C235.07 31.3141 235.192 31.4826 235.344 31.6205C235.503 31.7708 235.691 31.8879 235.895 31.9653C236.1 32.0426 236.318 32.0786 236.537 32.0712C236.984 32.0875 237.419 31.9279 237.749 31.6269C237.901 31.4836 238.02 31.3101 238.1 31.1177C238.18 30.9252 238.218 30.7181 238.213 30.5099C238.216 30.3003 238.176 30.0923 238.096 29.899C238.015 29.7056 237.895 29.5311 237.743 29.3865C237.407 29.1016 236.981 28.9452 236.54 28.9452C236.1 28.9452 235.674 29.1016 235.338 29.3865C235.184 29.5301 235.063 29.7043 234.981 29.8977C234.899 30.0912 234.858 30.2998 234.862 30.5099V30.5289Z" fill="white"/>
<path d="M233.66 26.3525V24.8928H234.295C234.041 24.6633 233.835 24.3848 233.692 24.0741C233.555 23.7642 233.486 23.4289 233.489 23.0903C233.484 22.748 233.577 22.4113 233.755 22.1193C233.941 21.8207 234.207 21.5809 234.523 21.4275C234.201 21.2145 233.937 20.9244 233.755 20.5834C233.577 20.2497 233.485 19.8765 233.489 19.4981C233.481 19.1188 233.58 18.745 233.774 18.4191C233.954 18.1395 234.213 17.9189 234.517 17.7845C234.997 17.6235 235.503 17.5546 236.008 17.5814H239.366V19.0348H236.459C236.005 18.9921 235.548 19.0755 235.139 19.2759C235.025 19.3571 234.933 19.4663 234.873 19.5929C234.813 19.7196 234.787 19.8596 234.796 19.9995C234.798 20.2277 234.871 20.4497 235.006 20.6341C235.153 20.8341 235.356 20.9864 235.589 21.0721C235.977 21.1845 236.38 21.2317 236.783 21.2117H239.366V22.6587H236.611C236.235 22.6431 235.859 22.6815 235.494 22.773C235.293 22.8299 235.115 22.95 234.987 23.1157C234.87 23.2733 234.81 23.4655 234.815 23.6615C234.817 23.8908 234.893 24.1133 235.031 24.2962C235.18 24.5005 235.388 24.6535 235.628 24.7341C236.021 24.8491 236.43 24.8984 236.84 24.8801H239.378V26.3525H233.66Z" fill="white"/>
<path d="M86.7207 12.6437L91.1063 17.683H99.7759L91.8044 9.32433C90.9147 8.43654 89.8106 7.79377 88.5993 7.45839C87.3422 7.02696 86.025 6.79566 84.6961 6.77294C83.0768 6.73976 81.4665 7.02215 79.9551 7.60437V11.0443C80.5766 10.6482 81.2998 10.4409 82.0368 10.4477C83.5791 10.4477 85.1404 11.1839 86.7207 12.6437Z" fill="white"/>
<path d="M223.917 17.7403C223.917 17.7403 220.984 11.8949 216.612 9.38164C214.155 7.97266 211.718 7.00796 208.996 7.00796C207.142 6.95951 205.309 7.39714 203.677 8.27731C202.858 8.72079 202.176 9.3811 201.707 10.186C201.238 10.9908 201 11.9092 201.018 12.8406C201.045 13.7696 201.258 14.6837 201.645 15.5287C202.032 16.3736 202.585 17.1322 203.271 17.7593H63.6426V21.2754H73.4229C75.3015 22.1217 76.2409 23.7612 76.2409 26.1941C76.2785 26.9383 76.1596 27.6821 75.8917 28.3774C75.6239 29.0727 75.2131 29.7041 74.6859 30.2307C73.5753 31.245 72.1075 31.7769 70.6049 31.7095C68.381 31.612 66.2094 31.004 64.2582 29.9324V35.5048H65.2483C66.5176 35.5048 67.9034 36.7107 69.4054 39.1224C71.6775 42.721 73.2135 44.9487 74.0322 45.8246C75.07 46.9688 76.3371 47.8816 77.7509 48.5038C79.1648 49.126 80.6938 49.4436 82.2385 49.4359C84.188 49.3954 86.1177 49.0352 87.9506 48.3696L89.5119 43.2922C87.3963 44.5616 85.7208 45.1963 84.4853 45.1963C82.7082 45.1963 80.8782 43.4573 78.9953 39.9793C77.9545 38.0837 77.3769 37.0555 77.2627 36.8947C76.4227 35.8348 75.2702 35.0665 73.9687 34.6988C76.3374 34.6735 78.669 34.1068 80.7851 33.0423C83.1207 31.7348 84.2885 29.816 84.2885 27.2858C84.2767 25.9718 83.9176 24.6843 83.2476 23.5539C82.9827 23.0041 82.6042 22.5167 82.137 22.124C81.6699 21.7312 81.1247 21.442 80.5376 21.2754H92.901V47.297H100.295V21.2754H130.347V24.7154H113.483V28.3901H116.866C117.491 28.6679 118.049 29.0761 118.504 29.5873C118.958 30.0985 119.298 30.7008 119.5 31.354C119.829 32.7329 120.001 34.1444 120.014 35.5619C120.13 37.3822 119.709 39.1963 118.802 40.7789C118.4 41.5577 117.788 42.2083 117.036 42.657C116.283 43.1057 115.42 43.3346 114.543 43.3176C111.243 43.3176 108.863 40.7684 107.403 35.6698L103.716 42.1308C105.057 44.1824 106.992 45.7764 109.263 46.7004C111.04 47.4113 113.428 47.7477 116.428 47.7096C119.457 47.7167 122.378 46.5838 124.609 44.5362C125.725 43.5468 126.611 42.3249 127.204 40.9565C127.797 39.5881 128.084 38.1064 128.043 36.6155C128.043 33.3786 126.695 30.6284 124 28.3647H130.347V47.297H138.026V21.2754H150.339C153.343 22.5025 154.807 26.3105 154.731 32.6995C154.684 38.4285 153.546 41.3332 151.316 41.4136C149.087 41.494 147.989 39.9919 148.022 36.9074C147.99 36.2426 148.103 35.5787 148.353 34.9617C148.603 34.3448 148.984 33.7895 149.469 33.3342C149.984 32.9028 150.588 32.5908 151.238 32.4207C151.887 32.2506 152.567 32.2266 153.227 32.3505L151.374 28.8915C148.488 28.735 146.216 29.2871 144.557 30.548C142.67 31.9316 141.746 34.0662 141.784 36.9519C141.822 39.719 142.727 41.8537 144.5 43.3557C146.154 44.7774 148.369 45.4692 151.145 45.4311C158.156 45.2745 161.662 40.8318 161.662 32.103C161.662 25.8958 160.217 22.2994 157.327 21.3135H163.673V47.297H171.182V21.2754H176.215V47.297H183.609V21.2754H196.448C198.327 22.1217 199.266 23.7612 199.266 26.1941C199.303 26.9377 199.185 27.6809 198.918 28.376C198.651 29.0711 198.242 29.7028 197.717 30.2307C196.603 31.243 195.134 31.7744 193.63 31.7095C191.406 31.6136 189.234 31.0055 187.283 29.9324V35.5048H188.204C189.473 35.5048 190.861 36.7107 192.367 39.1224C194.639 42.721 196.175 44.9487 196.988 45.8246C198.025 46.9688 199.292 47.8816 200.706 48.5038C202.12 49.126 203.649 49.4436 205.194 49.4359C207.143 49.3963 209.073 49.036 210.906 48.3696L212.467 43.2922C210.352 44.5616 208.676 45.1963 207.441 45.1963C205.668 45.1963 203.838 43.4573 201.951 39.9793C200.939 38.0879 200.377 37.0598 200.262 36.8947C199.425 35.8322 198.271 35.0633 196.968 34.6988C199.337 34.6735 201.669 34.1068 203.785 33.0423C206.142 31.7348 207.318 29.816 207.314 27.2858C207.299 25.9722 206.94 24.6855 206.273 23.5539C206.007 23.0039 205.627 22.5165 205.159 22.1238C204.69 21.7311 204.144 21.4419 203.556 21.2754H216.675V47.297H224.069V21.2754H228.112V17.7403H223.917ZM215.171 17.7403H211.471C210.669 17.0686 209.917 16.3411 209.218 15.5634C208.523 14.8455 208.095 13.9115 208.005 12.9168C208.005 11.9394 208.64 11.3936 209.967 11.273C211.397 11.1164 212.804 11.8082 214.187 13.3483C215.342 14.5495 216.082 16.0884 216.301 17.7403H215.171Z" fill="white"/>
<path d="M22.5107 1.85403L22.187 1.60016L22.0664 1.73344L22.5107 1.85403Z" fill="white"/>
<path d="M17.8094 41.5847L16.8574 42.3336C17.0376 42.7012 17.2367 43.0593 17.454 43.4062C17.4965 43.4835 17.5265 43.5671 17.5429 43.6538C17.597 42.96 17.686 42.2695 17.8094 41.5847Z" fill="white"/>
<path d="M17.9355 10.2257C18.1203 10.6214 18.4019 10.9642 18.7543 11.2221C18.8546 10.9776 19.0112 10.7602 19.2112 10.5875L17.9355 10.2257Z" fill="white"/>
<path d="M15.9129 45.5261L12.3842 41.0136C12.0859 40.9501 9.84546 42.1497 9.21079 42.7907C8.77921 43.2684 8.42772 43.8128 8.16992 44.4028L9.6614 44.0664L8.87441 45.3357L10.239 44.9486L9.60428 46.0783L11.0323 45.8371L10.3976 46.9922L11.5654 46.5353L10.9308 47.8046L12.3143 47.3413L11.6797 48.6106C13.2981 48.49 15.9129 45.5261 15.9129 45.5261Z" fill="white"/>
<path d="M24.2654 13.8625C24.2754 13.6416 24.2028 13.4249 24.0617 13.2548C23.9205 13.0846 23.721 12.9731 23.5021 12.9422C23.2832 12.9113 23.0606 12.9631 22.8778 13.0875C22.695 13.2119 22.5652 13.3999 22.5137 13.6149C23.3578 13.469 23.6751 13.7863 24.2654 13.8625Z" fill="white"/>
<path d="M23.7651 15.3665V14.3637C23.7012 14.29 23.6227 14.2303 23.5347 14.1883C23.4467 14.1462 23.3509 14.1228 23.2534 14.1193C23.1559 14.1159 23.0588 14.1326 22.968 14.1683C22.8772 14.2041 22.7948 14.2581 22.7258 14.3271C22.6568 14.3961 22.6027 14.4785 22.567 14.5693C22.5313 14.6601 22.5146 14.7572 22.518 14.8547C22.5214 14.9522 22.5449 15.048 22.587 15.136C22.629 15.2241 22.6887 15.3025 22.7624 15.3665H23.7651Z" fill="white"/>
<path d="M29.5037 12.9166C29.5158 12.695 29.4445 12.4769 29.3039 12.3052C29.1633 12.1334 28.9635 12.0206 28.7439 11.9887C28.5242 11.9569 28.3006 12.0084 28.1171 12.1332C27.9335 12.2579 27.8033 12.4468 27.752 12.6627C28.5643 12.5231 28.9134 12.8341 29.5037 12.9166Z" fill="white"/>
<path d="M28.2602 14.4208H29.2566V13.418C29.1937 13.3407 29.1153 13.2774 29.0263 13.2323C28.9374 13.1872 28.84 13.1614 28.7404 13.1564C28.6408 13.1514 28.5413 13.1675 28.4484 13.2035C28.3554 13.2394 28.271 13.2946 28.2007 13.3653C28.1305 13.436 28.0759 13.5207 28.0405 13.614C28.0051 13.7072 27.9897 13.8068 27.9953 13.9063C28.0009 14.0058 28.0273 14.1031 28.073 14.1917C28.1186 14.2804 28.1824 14.3584 28.2602 14.4208Z" fill="white"/>
<path d="M23.9975 18.1972C23.2295 18.5082 26.1046 20.7359 28.7575 19.4665C29.2872 19.2227 29.7671 18.8826 30.1728 18.4637C30.395 17.7846 29.7413 18.286 28.8591 18.9651C28.034 19.511 25.1716 19.3015 23.9975 18.1972Z" fill="white"/>
<path d="M17.2559 19.6251C17.5542 20.7484 19.2424 20.4755 20.2642 20.8944C20.1436 19.6631 18.2015 19.2062 17.2559 19.6251Z" fill="white"/>
<path d="M27.5313 22.8812C27.3726 23.8015 29.6765 23.5158 29.2766 22.6337C28.4389 22.4877 28.1152 22.7987 27.5313 22.8812Z" fill="white"/>
<path d="M44.3055 40.417C44.3753 39.7823 43.9564 39.5919 43.2964 39.6681C43.0996 40.5629 43.8358 40.9057 44.3055 40.417Z" fill="white"/>
<path d="M30.2818 43.4252C30.3897 42.8667 30.4151 40.5375 29.5329 40.163C29.2917 41.2547 28.9363 43.2539 30.2818 43.4252Z" fill="white"/>
<path d="M41.3053 41.4198V40.4171H40.3025C40.1058 41.2802 40.4422 41.6166 41.3053 41.4198Z" fill="white"/>
<path d="M38.8002 41.1658H38.2988C38.2988 41.3181 38.2607 41.4641 38.0449 41.4196V41.921C38.2036 41.921 38.3432 41.9591 38.2988 42.1686H38.8002C38.8002 42.0162 38.8383 41.8766 39.0541 41.921V41.4196C38.9017 41.4069 38.7558 41.3816 38.8002 41.1658Z" fill="white"/>
<path d="M26.2129 12.5613C26.2283 12.4939 26.2495 12.4281 26.2764 12.3645L26.2129 12.5613Z" fill="white"/>
<path d="M44.8207 37.9093C44.3474 37.5317 43.842 37.1962 43.3102 36.9066C43.1198 35.8784 43.6973 35.6372 43.5641 34.6535C41.9647 34.2536 41.4125 32.8002 41.311 30.8962C40.3145 30.0838 40.7144 32.3433 39.5529 32.1656C40.7588 29.8617 43.8687 29.4618 45.3158 27.3992C46.9807 28.1774 48.5736 29.1013 50.0758 30.16C51.3452 29.8109 51.6752 28.5796 52.3289 27.653C51.25 26.0663 49.4475 25.1968 48.5716 23.3944C49.549 21.6173 51.2944 20.6018 52.0814 18.6343C51.4885 17.8713 50.7139 17.2691 49.8283 16.8826C48.5145 18.2472 47.5625 19.9671 46.071 21.1413C45.1634 20.9636 45.3538 19.6879 44.3193 19.6371C42.8723 20.4495 42.4153 22.2456 41.0571 23.1468C40.3526 22.3408 39.0325 22.1631 38.804 20.8874C40.3717 19.4467 41.5395 17.6125 43.8179 16.8826C44.0842 17.2078 44.4372 17.4508 44.836 17.5833C45.2348 17.7159 45.6631 17.7326 46.071 17.6315C48.0639 13.7727 43.4181 10.5803 39.3054 10.3709C37.4649 11.7925 39.5085 13.3729 40.3082 14.3756C39.6354 15.7085 39.3118 17.3967 38.3026 18.3868C39.8703 13.9948 36.6461 10.4851 34.0503 12.3891C31.1181 14.5026 35.0277 22.8358 32.781 26.4154C31.5948 25.9406 30.5549 25.1612 29.7663 24.156C32.6096 20.8303 30.6802 14.052 29.487 9.63464C28.5604 9.39346 30.6612 8.4478 30.3184 7.62272C29.6838 6.41684 27.7417 5.18558 25.9963 3.89719C24.4794 2.74208 23.1149 1.59967 22.9372 0.330322C20.7729 0.844408 15.0101 8.11777 14.7562 11.1198C14.5151 13.9568 17.5044 15.7719 17.0093 18.3868C16.6222 18.8564 16.0383 18.025 15.5115 18.6343C15.099 19.9735 16.9141 20.3924 16.0129 21.3888C13.7408 19.1484 11.7098 16.6732 11.2528 12.624C11.786 11.5704 13.2203 11.4244 13.7534 10.3709C14.6991 4.8492 7.80656 6.56282 8.99975 10.3709C3.42096 11.088 4.20161 20.5256 7.48922 23.1468C8.79665 23.1468 8.45393 22.0996 8.75857 21.6427C8.95532 22.4106 9.25996 22.4424 10.0279 22.1441C10.9736 20.9255 8.57451 19.8338 9.52652 18.6343C11.8113 20.2781 12.7507 23.2611 14.0391 25.9013C13.214 25.8061 13.5313 24.5685 12.5349 24.632C11.1513 25.2666 9.36151 25.4761 8.02869 26.1362C7.77483 27.1199 8.58086 27.5896 8.02869 28.1417C4.39202 29.0176 1.34558 30.4837 0.507812 34.1521C3.80177 39.001 11.2084 36.0561 16.7935 35.1549C18.266 36.7352 17.0791 37.8141 16.7935 38.9121C17.1236 39.0327 17.8661 38.7344 17.9931 39.0644C17.2142 39.6356 16.4663 40.2479 15.7527 40.8987L14.8387 40.0545C14.8387 40.0545 14.2802 39.5278 12.8713 40.4544L16.5016 45.2398L17.4536 44.4909C17.5072 44.4147 17.5499 44.3314 17.5805 44.2434C17.5695 44.837 17.7304 45.4211 18.0438 45.9253C16.0827 47.8293 13.9883 49.5683 12.3318 51.777C9.76135 49.6698 3.751 50.3172 3.5479 54.0618C3.51617 54.6013 3.81446 55.0392 3.63675 55.7627C3.70022 56.0039 4.1318 55.8643 4.08737 56.2133C4.4301 58.9297 4.72205 61.7033 4.98226 64.4641H12.0716C12.1223 63.7723 12.2048 63.1186 12.2683 62.4458C12.592 63.5755 13.5377 64.7814 13.7534 65.9429C9.01878 66.5776 3.47174 66.3427 0.729949 68.9449C6.30238 70.4554 14.0581 71.9659 20.7666 70.6966C22.3723 71.2805 23.7115 73.1464 26.028 72.2008C26.4247 71.482 26.6734 70.691 26.7595 69.8746C26.8456 69.0582 26.7674 68.2328 26.5294 67.4471C30.1598 66.495 33.7076 67.7073 36.2971 66.4379C35.8084 64.7624 34.5263 63.8992 33.7964 62.4331C33.7012 61.5065 34.8119 61.7985 34.5454 60.6814C33.9107 60.0087 32.3113 60.2435 32.2923 58.9297C34.1963 57.5271 38.5946 53.9285 38.804 51.9166C39.1785 48.2863 33.879 46.1284 34.7992 41.8951C35.1166 42.2442 35.9797 42.0474 36.2971 42.3965C36.1892 43.12 35.4149 43.1771 35.5481 44.1482C42.4217 50.2157 48.6605 56.9242 55.8577 62.6807C60.0592 60.6941 56.651 57.2859 54.8549 54.4299C51.434 49.0098 47.2071 42.7646 44.8207 37.9093ZM40.8096 32.9018C41.0571 33.8284 41.9076 34.1711 42.3138 34.9073C42.2439 38.6392 45.265 39.2993 46.071 42.168C43.3292 39.7182 40.194 42.2822 37.3062 43.1708C36.8175 42.2315 37.8774 41.8507 37.0523 40.9177C41.2792 41.2223 42.1297 35.5864 39.3054 33.6507C39.9591 33.5555 40.0607 32.9018 40.8096 32.9018ZM35.802 35.4087C36.4811 33.8347 37.9472 33.0477 37.8012 30.6487C38.3851 30.5725 38.0805 31.3722 38.5565 31.3976C38.3915 33.492 37.6108 34.9645 35.802 35.4087ZM36.2971 38.6646C35.5799 38.6265 35.8401 37.6174 35.802 36.9066C36.5065 37.2175 36.6271 37.9347 36.2971 38.6646ZM35.0277 15.8671C36.0115 16.0258 36.8429 16.616 37.7822 16.1147C36.4176 21.7632 37.6108 29.9759 33.7774 33.1493C33.5235 27.6721 35.4276 22.29 35.0467 15.8671H35.0277ZM37.5347 23.1341C38.804 23.1341 39.0515 24.1242 40.0734 24.4035C39.591 26.0092 38.3407 26.8533 37.5347 28.1608C36.7858 26.701 37.8774 24.962 37.5537 23.1341H37.5347ZM39.5529 37.1414C38.6961 36.5067 38.9183 35.9799 38.2836 34.8883C39.591 33.9109 40.689 36.4242 39.5529 37.1414ZM37.0523 35.6372C37.9236 36.3014 38.6133 37.1746 39.0579 38.1759C38.1186 38.1759 38.3407 38.4552 37.5537 38.1759C37.3697 37.4905 38.0488 37.6682 38.0488 37.1731C37.4712 36.9066 36.1955 36.5892 37.0523 35.6563V35.6372ZM42.5613 28.8906C42.0472 28.1925 43.5514 27.3928 43.8306 26.6375C44.313 27.3357 42.8215 28.1417 42.5613 28.8906ZM51.0786 18.8755C50.9447 18.8838 50.8106 18.8636 50.6852 18.8162C50.5597 18.7688 50.4458 18.6952 50.351 18.6003C50.2561 18.5055 50.1825 18.3916 50.1351 18.2661C50.0877 18.1407 50.0675 18.0066 50.0758 17.8727C50.2099 17.8633 50.3445 17.8828 50.4704 17.9298C50.5964 17.9769 50.7107 18.0505 50.8058 18.1455C50.9009 18.2406 50.9744 18.3549 51.0215 18.4809C51.0685 18.6068 51.088 18.7414 51.0786 18.8755ZM50.3297 19.123C49.2952 20.1766 48.8192 21.7886 47.3213 22.3789C47.3848 21.4459 49.035 18.8311 50.3297 19.123ZM49.0603 18.3741C49.3904 19.3705 47.5879 20.386 47.0738 21.3761C46.9025 20.5383 48.7557 19.5292 49.073 18.3741H49.0603ZM41.311 24.632C41.8314 24.778 42.117 25.1588 42.5803 25.3872C43.2848 25.0636 41.7933 24.8668 42.0789 24.1179C41.9457 23.2357 42.9675 23.4832 42.8342 22.6201C43.7481 22.6201 43.9576 23.3309 44.5859 23.6228C44.6303 22.7406 43.7418 22.7978 43.5831 22.1187C43.5831 21.3571 44.1099 21.1413 44.3384 20.6145C45.4173 20.8684 45.9822 21.6363 46.5851 22.3662C46.528 23.3119 45.6458 23.4261 45.5887 24.3718C46.6613 24.4416 46.4074 23.1913 47.3404 23.1024C47.4487 23.4564 47.6427 23.7783 47.905 24.0396C48.1674 24.3008 48.4901 24.4934 48.8446 24.6002C48.8826 25.2349 48.4511 25.3809 48.3432 25.8696C49.9489 24.7081 49.9997 27.1389 51.599 27.3674C51.599 28.2877 50.8882 28.4971 50.5963 29.1255C48.267 28.1988 46.3884 26.8216 44.3384 25.6157C42.4343 27.158 41.1015 29.2334 39.572 31.1247C38.8929 30.8073 38.8548 29.8553 38.0678 29.6269C38.3217 28.8589 38.7406 29.9125 39.0769 29.8744C39.6227 29.7094 38.6009 29.043 38.3217 28.8716C38.5819 27.964 39.6545 27.8688 39.8258 26.8724C40.3272 26.8724 40.1432 27.5515 40.8286 27.3674C41.4633 27.0057 39.9084 26.8089 40.3272 25.8696C41.0952 25.9204 41.1713 25.2413 41.311 24.632ZM43.5641 13.8425C43.361 14.7945 41.9076 14.2297 42.0599 13.3411C42.5867 12.8334 43.0436 13.6585 43.5641 13.8616V13.8425ZM41.8124 16.3812C41.457 17.0159 41.2285 17.7965 40.3082 17.8854C40.2003 17.6633 40.0861 17.4348 39.8068 17.384C39.8131 16.1972 41.0508 15.3594 41.8124 16.3685V16.3812ZM39.8068 18.1012C39.5974 19.2309 38.5375 19.4784 38.3026 20.6081C37.6806 19.6561 38.8611 18.3551 39.8068 18.1012ZM40.8096 24.1115C39.7878 23.0453 37.8837 22.8422 37.8012 20.8557C38.4994 22.271 40.4161 22.436 40.8096 24.1306V24.1115ZM33.8282 13.595C34.7675 11.1007 40.0797 14.0202 37.0841 15.3467C37.2115 14.5592 37.032 13.7528 36.5827 13.0936C33.6441 12.662 34.52 16.0448 34.3232 18.3551C33.2443 17.6696 34.0503 15.1119 33.7964 13.614L33.8282 13.595ZM33.0412 39.4135C33.1935 40.9367 33.9805 41.8189 34.0503 43.4247C30.7077 43.7547 27.2826 44.0043 23.7749 44.1736C23.6163 43.4945 24.0923 42.187 23.5211 41.9205C23.9273 41.2858 24.7333 42.3648 25.2791 42.4219C26.9674 42.0982 27.6274 40.759 28.535 39.6674C29.7155 40.0228 31.6195 39.5722 33.0412 39.4135ZM22.7722 44.1736H18.761V40.6638C19.5798 39.3945 22.4675 41.5841 22.5246 39.3945C23.0324 39.5532 22.5881 40.6638 23.5211 40.3973C22.3342 41.3747 23.0641 41.984 22.7722 44.1736ZM20.7666 33.9046C24.1431 32.832 25.5076 35.5864 26.7833 37.408C25.514 37.5793 25.1205 38.5884 24.7714 39.6674C22.9054 38.2775 22.0359 35.872 20.7666 33.9046ZM32.2923 37.6618C31.1435 37.8078 30.1026 37.5095 29.7536 38.9312C28.4081 36.4432 24.9745 36.0307 25.5013 31.6642C27.0245 31.8609 27.8432 31.3405 29.2522 31.4166C29.1379 29.1064 28.7635 27.0691 28.7571 24.651C30.326 28.8723 31.5092 33.227 32.2923 37.6618ZM28.7381 7.83216L19.218 5.00152L19.5607 4.6461L29.5632 7.62907C29.633 7.69254 29.7155 7.756 29.7917 7.81312C29.4426 7.81312 29.0808 7.82582 28.7381 7.8512V7.83216ZM19.0212 13.8616C19.1464 14.6212 19.0971 15.3993 18.8772 16.1371C18.6573 16.8749 18.2725 17.5531 17.7519 18.1202C18.2089 16.7303 18.5643 15.2452 19.0212 13.8616ZM18.2914 13.614C18.9959 14.09 17.9423 14.9215 18.0375 15.6133C16.9268 15.2578 17.9486 14.0647 18.2914 13.614ZM19.2434 10.6057C19.0433 10.7784 18.8867 10.9958 18.7864 11.2404C18.434 10.9824 18.1524 10.6397 17.9677 10.2439L19.2434 10.6057ZM19.8717 10.1805L17.333 9.42519C17.2267 9.32377 17.1012 9.24458 16.9639 9.19226C16.8266 9.13995 16.6802 9.11557 16.5333 9.12055C16.5924 8.95226 16.6645 8.78886 16.7491 8.63185L20.6016 9.78696C20.3413 9.89823 20.087 10.0232 19.84 10.1614L19.8717 10.1805ZM21.4647 9.39346L17.022 8.07334C17.1299 7.89563 17.2442 7.71158 17.3711 7.52117L22.4485 9.03804C22.0994 9.15228 21.763 9.26653 21.4647 9.39346ZM23.5401 8.72071L17.7265 6.9944C17.8471 6.83573 17.9613 6.67071 18.0883 6.5057L24.6381 8.45414C24.2488 8.53877 23.8765 8.62762 23.5211 8.72071H23.5401ZM25.9074 8.20027L18.4754 5.98526L18.8372 5.51561L27.1768 7.99718C26.7325 8.0543 26.3073 8.12411 25.9074 8.20027ZM26.2375 4.9444L20.6968 3.29425C20.8047 3.18001 20.8999 3.05942 20.9951 2.95152L25.5013 4.33511C25.717 4.53821 25.9582 4.77304 26.2121 4.9444H26.2375ZM24.2954 3.33233L21.433 2.45648L21.6488 2.20896L23.7115 2.84363L24.2954 3.33233ZM22.0994 1.71391L22.22 1.58063L22.5437 1.85354L22.0994 1.71391ZM20.2715 3.79564L27.4434 5.94084L28.2875 6.61994L19.9606 4.13836L20.2715 3.79564ZM17.022 13.614C16.7047 12.6811 15.5877 11.4942 16.0256 10.6057C17.0728 10.8151 16.876 12.2622 18.2787 12.1099C17.8725 12.6366 17.8154 13.4998 17.022 13.614ZM19.2815 19.123C18.926 17.1174 21.5599 13.8996 20.0304 11.6085C21.2997 8.10507 29.3537 8.79687 28.6429 9.10151C28.7508 9.58386 29.2776 9.73619 29.6711 11.9575C29.6711 11.9575 32.0511 19.9163 29.798 23.3817C27.8115 24.651 25.4061 23.2738 23.7876 22.6328C23.7496 23.4197 24.4223 23.4896 25.057 23.6355C23.8638 24.3146 22.988 22.5312 21.8011 22.3662C22.4358 24.6574 25.3172 25.1841 27.8051 24.8731C27.345 25.8526 26.66 26.7094 25.8059 27.3738C24.3398 26.5931 22.9372 25.7427 21.5472 24.8731C21.7376 23.5149 21.1537 22.931 21.2934 21.6173C18.7864 22.4233 17.1236 20.7478 16.2858 19.0786L19.2815 19.123ZM21.8202 27.3738C20.9887 28.2687 20.2081 26.993 20.5508 25.8759C21.5663 25.7617 21.2045 27.0374 21.7757 27.3865L21.8202 27.3738ZM20.0621 23.1215C20.2271 24.2004 19.6305 24.5241 19.3132 25.1207C18.0438 24.7589 17.1743 23.5276 18.0438 22.3662C18.6571 22.7249 19.3233 22.9841 20.0177 23.1341L20.0621 23.1215ZM12.7507 9.85043C11.6083 9.74253 10.7959 9.30461 10.7514 8.09873C11.3798 6.2074 13.9502 8.42876 12.7507 9.85043ZM12.5031 10.3518C11.6209 11.2848 9.96445 10.5041 9.99618 9.08247C10.9863 9.36807 11.1576 10.447 12.5031 10.3582V10.3518ZM8.49835 16.616C8.3002 16.6287 8.10225 16.5884 7.92487 16.4991C7.7475 16.4099 7.59712 16.275 7.48922 16.1083C6.09929 16.743 6.30873 18.1139 6.49278 19.8656C4.85533 17.0286 6.32777 12.8842 7.99696 11.1007C8.86646 11.3038 8.96167 10.7263 9.74866 10.8532C9.83117 12.1226 8.79665 12.2368 8.99975 13.6077C9.80578 13.8298 9.34882 12.789 9.74866 12.6049C10.231 12.7065 9.74866 13.7537 10.7514 13.3538C9.90098 14.3503 8.65067 14.9278 8.49835 16.6224V16.616ZM13.7534 23.1278C12.4841 20.9826 9.31073 17.714 10.4976 15.8608C13.7535 19.7651 16.7654 23.8665 19.5163 28.1417C18.4373 28.1417 18.596 29.4111 17.5107 29.4111C16.3112 27.8625 15.2005 25.6094 13.7534 23.1341V23.1278ZM17.5107 33.9172C13.4107 32.2861 5.7883 38.36 1.23134 34.1648C1.33289 32.0957 4.77917 29.7221 6.98783 29.4111C7.87637 29.2841 9.73597 28.9414 9.49479 30.6804C7.87637 30.6423 6.2643 30.6233 5.24248 31.1755C8.96074 31.8929 12.7296 32.3173 16.5143 32.4448C18.2279 30.2234 19.7384 28.0021 23.2736 28.1861C23.7115 28.2433 23.8448 28.6177 23.7749 29.1889C23.0705 29.8617 22.7468 28.7447 21.7757 28.9351C21.7757 30.3694 23.4259 30.1156 24.2763 30.6931C24.1431 31.6578 24.727 31.9117 24.5239 32.9462C21.8392 31.9751 19.4972 33.3334 17.5107 33.9046V33.9172ZM19.5163 34.4186C20.9887 35.2881 21.5599 37.0462 22.2708 38.6773C22.0714 38.5868 21.855 38.54 21.6361 38.54C21.4172 38.54 21.2008 38.5868 21.0014 38.6773V37.6618C20.2652 37.592 20.2271 38.2267 19.4972 38.1632C18.9832 36.9827 19.6369 36.2338 19.5163 34.4059V34.4186ZM17.4599 43.4247C17.2427 43.0777 17.0435 42.7197 16.8634 42.3521L17.8154 41.5841C17.6919 42.2689 17.6029 42.9594 17.5488 43.6531C17.5305 43.573 17.5006 43.4961 17.4599 43.4247ZM8.77126 57.1146C8.13659 58.6759 9.58999 59.7802 9.31074 60.9226C9.18832 61.2076 8.96578 61.4379 8.68514 61.5701C8.4045 61.7022 8.08519 61.727 7.78752 61.6398C6.56895 60.948 8.59355 58.3331 7.06399 57.7746C6.04217 57.927 7.06399 59.5898 6.34681 60.1102C4.82994 60.6941 4.58242 58.6187 5.35672 57.8698C4.72205 57.3684 4.72205 56.2958 4.55068 55.3311C6.92436 55.3311 8.91089 55.4835 11.3798 55.3311C10.6753 56.6893 9.40594 55.5469 8.77126 57.1146ZM3.82716 55.2105C3.38923 50.9963 9.53922 50.1332 12.0779 52.3228C12.4195 53.0425 12.7987 53.7437 13.214 54.4236C13.2418 54.7222 13.229 55.0232 13.1759 55.3184C12.8459 55.4073 13.1378 54.8805 12.7316 55.0455C9.89464 55.1471 5.85176 54.8297 3.80177 55.2296L3.82716 55.2105ZM12.9982 56.0166C13.068 55.8198 13.5567 56.0166 13.4488 55.6548C13.3319 55.3635 13.3184 55.0409 13.4107 54.7409C15.0165 57.3875 16.9966 59.9389 17.79 62.4395C16.3112 61.5763 14.8641 60.6878 12.7761 60.4339C12.644 60.5714 12.5329 60.7275 12.446 60.8972C12.5793 59.2852 12.8014 57.6731 12.9728 56.0356L12.9982 56.0166ZM14.7816 68.4498C15.9304 67.409 17.955 68.4498 18.5452 69.4526C16.8126 69.5859 15.283 69.5097 14.7562 68.4689L14.7816 68.4498ZM19.0466 68.4498C16.2985 67.0663 13.8487 65.1242 12.7761 62.192C12.5983 61.5065 13.2774 61.6842 13.2774 61.1828C18.1962 61.9508 19.6242 66.2031 22.55 68.9512C21.8455 70.3602 19.9986 68.9703 19.0212 68.4689L19.0466 68.4498ZM22.2962 70.7029C22.5881 70.0683 23.2926 69.8652 23.2989 68.9512C23.9085 69.0408 24.4676 69.3402 24.8801 69.7979C25.2925 70.2555 25.5324 70.8427 25.5584 71.4582C24.3969 71.9786 23.0387 71.3313 22.2708 70.722L22.2962 70.7029ZM20.0431 64.6926C22.1121 63.8802 22.6452 66.7616 25.057 66.4443C25.4124 67.428 26.0534 68.1198 26.0534 69.4526C24.7636 69.1477 23.5556 68.5656 22.5134 67.7469C21.4711 66.9282 20.6195 65.8925 20.0177 64.7116L20.0431 64.6926ZM22.0486 64.1912C22.8991 63.6834 24.3779 64.6926 24.5492 65.6954C23.3688 65.5367 22.385 65.1876 22.0232 64.2102L22.0486 64.1912ZM29.8107 64.9464C28.6555 65.157 27.4806 65.24 26.3073 65.194C25.8376 62.706 25.7234 59.8944 25.0379 57.6794C24.8158 56.9749 24.251 56.372 24.2827 55.6739C24.4033 53.2938 26.8214 52.3799 27.5449 50.1649C29.3537 51.6056 29.9884 53.4779 29.7917 56.4291C28.0082 57.4509 26.5104 57.6985 26.7896 59.685C27.0118 61.3415 30.5596 62.5728 29.7853 64.9655L29.8107 64.9464ZM31.08 59.685C27.3482 58.5045 32.4319 55.4581 31.08 59.685V59.685ZM35.345 66.1967C32.6477 66.6537 29.963 65.1178 30.0836 61.9381C29.3537 60.9099 27.894 60.618 27.3291 59.4375C27.5132 58.6187 27.7417 57.8444 28.8333 57.9333C29.1887 58.9678 30.1026 61.6208 31.3339 60.1864C32.0067 60.6116 30.42 61.7223 31.3339 62.4395C31.9686 62.5093 32.4129 62.3506 32.3367 61.6906C33.3839 63.1186 34.2471 64.7687 35.3006 66.2158L35.345 66.1967ZM38.0932 51.9229C36.3923 53.9729 34.2851 55.6231 32.8444 57.9333C31.8353 57.013 30.5469 56.3847 30.3057 54.6774C31.4037 53.9602 31.7211 55.8452 32.8444 55.9468C33.4791 55.109 32.4319 54.3093 32.0892 53.6937C32.7937 52.9194 33.6378 54.1316 34.5898 53.9412C33.4855 51.4025 30.4961 50.6917 28.3256 49.1811C28.3256 48.2926 29.2585 48.2736 29.0808 47.1819C26.7325 48.8384 25.5965 51.7135 23.5655 53.6937C22.6833 53.7445 23.0705 52.5132 22.0677 52.6909C23.7397 56.324 24.758 60.2235 25.076 64.2102C23.6734 63.6898 22.5373 62.8901 22.0677 61.4557C21.0522 61.6081 20.4937 62.2237 19.0657 61.9571C17.6567 58.3141 15.118 55.8262 13.0045 52.9384C14.6928 50.1205 17.0791 47.9943 19.2688 45.6777C24.2975 45.8577 29.3313 45.5217 34.2915 44.675C34.4565 45.9443 33.0221 45.5699 32.8 46.4267C33.3903 48.1657 34.539 49.3525 35.3006 50.9392C36.2971 51.1931 37.7441 50.9963 38.0488 51.942L38.0932 51.9229ZM37.0967 50.1649C35.1293 49.9618 33.5616 47.2581 34.3359 45.9062C35.8084 46.744 36.2145 48.6861 37.0523 50.1839L37.0967 50.1649ZM33.7964 38.1632C34.1392 38.5631 34.0059 39.4326 34.5454 39.6674C30.9341 37.2937 35.18 32.5781 36.7985 30.3948C37.7568 32.1084 36.2272 33.492 35.3006 34.1521C35.5354 36.2275 34.9896 37.5159 33.7964 38.1632ZM35.0658 39.4326C35.5813 39.3282 36.1172 39.4187 36.57 39.6864C36.4938 40.4671 34.9262 40.2386 35.0467 39.4135L35.0658 39.4326ZM55.6038 61.7286C48.724 56.4228 42.8532 50.1078 36.5636 44.1926C36.6398 42.9994 37.4014 44.6369 38.0615 44.4465C39.1975 42.4663 42.409 44.1228 43.0436 41.6666C44.2495 42.1299 44.789 43.2596 46.547 43.1708C50.1858 48.7178 53.7823 54.3114 57.3365 59.9516C57.1524 60.9353 56.3718 61.3034 55.5848 61.7096L55.6038 61.7286Z" fill="white"/>
<path d="M28.782 15.8677C28.1473 15.6139 27.1001 15.4298 26.7764 16.1153C27.3476 16.6294 29.258 16.1724 29.258 16.1724L29.3278 15.6139C26.5099 13.8431 26.1862 12.9292 26.2116 12.5611C25.4753 14.4143 28.2996 14.573 28.782 15.8677Z" fill="white"/>
<path d="M80.7304 57.9469V58.9751H79.5309V66.4769H77.4174V65.6074C76.8588 66.0339 76.1717 66.2577 75.469 66.2421C74.4667 66.2187 73.4883 65.932 72.632 65.4107C71.7459 64.9316 70.9983 64.2321 70.4614 63.3797V61.3741C71.0906 61.7324 71.7947 61.9389 72.5177 61.9771C72.7491 61.9897 72.9807 61.9557 73.1987 61.8772C73.4167 61.7987 73.6168 61.6773 73.7871 61.5201C74.0536 61.2393 74.2184 60.8774 74.2552 60.492C74.292 60.1067 74.1987 59.7201 73.9902 59.394C73.9098 59.2675 73.7979 59.1641 73.6655 59.094C73.5331 59.0239 73.3847 58.9895 73.2349 58.9941H70.252V57.9659L80.7304 57.9469ZM75.8117 58.9751C76.0438 59.1507 76.227 59.383 76.3437 59.6497C76.4604 59.9164 76.5067 60.2086 76.4781 60.4983C76.4917 60.8745 76.4146 61.2485 76.2533 61.5887C76.092 61.929 75.8513 62.2254 75.5515 62.4531C74.9343 62.8977 74.1852 63.1213 73.4253 63.0878C73.1789 63.0862 72.9328 63.0671 72.6891 63.0306C73.0123 63.5534 73.4454 63.9996 73.9584 64.3381C74.4446 64.6796 75.021 64.8695 75.6149 64.8839C75.9758 64.8858 76.3306 64.7916 76.643 64.6109C76.9553 64.4302 77.2139 64.1695 77.392 63.8557V58.9751H75.8117Z" fill="white"/>
<path d="M85.6449 65.3155L85.2006 64.3571C85.8353 64.3571 86.1971 64.0905 86.1971 63.6336C86.1936 63.4788 86.1448 63.3284 86.0568 63.2009C85.9689 63.0735 85.8455 62.9746 85.702 62.9164C85.4172 62.7766 85.1053 62.7008 84.7881 62.6943C83.468 62.6943 82.7698 63.202 82.7 64.2936C82.665 64.6068 82.7169 64.9235 82.8501 65.209C82.9834 65.4945 83.1928 65.7378 83.4553 65.9121C83.9844 66.2559 84.6084 66.4247 85.2387 66.3944C86.4086 66.4218 87.5445 65.9992 88.4121 65.2139L87.9995 66.991C86.9111 67.3595 85.772 67.5565 84.6231 67.5749C83.6481 67.5964 82.6847 67.36 81.8305 66.8895C81.3934 66.6828 81.0244 66.3555 80.7669 65.9463C80.5095 65.537 80.3742 65.0627 80.3771 64.5792C80.3712 64.085 80.524 63.6019 80.8131 63.2009C81.1021 62.7999 81.5121 62.5022 81.9828 62.3515C81.1832 62.2373 80.7706 61.9009 80.7135 61.3361C80.6849 61.0716 80.7368 60.8046 80.8625 60.5702C80.9883 60.3358 81.1819 60.1448 81.418 60.0223C81.897 59.7651 82.4359 59.6402 82.9793 59.6605H85.4608V58.9751H80.3835V57.9469H89.4085V58.9751H87.6822V60.6887H83.7345C83.3283 60.6887 83.0999 60.8537 83.0999 61.1774C83.0999 61.5011 83.2458 61.5963 83.5441 61.6978C84.063 61.6188 84.587 61.5785 85.1118 61.5772C87.1364 61.5772 88.228 62.2119 88.374 63.4114C88.392 63.7188 88.312 64.0239 88.1455 64.2828C87.979 64.5417 87.7345 64.7411 87.4474 64.8522C86.9573 65.1522 86.3971 65.3185 85.8226 65.3345C85.7629 65.3336 85.7034 65.3272 85.6449 65.3155Z" fill="white"/>
<path d="M89.7519 66.4769V58.9751H89.1172V57.9469H93.1728V58.9751H91.9542V66.4769H89.7519Z" fill="white"/>
<path d="M90.511 56.4234C90.6724 56.497 90.8476 56.5359 91.025 56.5376C91.3694 56.5394 91.7021 56.4127 91.958 56.1822C92.2303 55.9593 92.4311 55.6614 92.5356 55.3254V56.5567C92.3028 56.9125 91.9844 57.2041 91.6096 57.4048C91.2347 57.6055 90.8155 57.7089 90.3904 57.7054C90.0323 57.7225 89.677 57.6342 89.3685 57.4516C89.037 57.2882 88.7578 57.0354 88.5625 56.7217L89.7113 55.2873C89.7279 55.5317 89.8113 55.7669 89.9523 55.9672C90.0933 56.1675 90.2865 56.3253 90.511 56.4234ZM91.482 55.8268C91.5454 55.7663 91.5957 55.6934 91.6295 55.6126C91.6634 55.5317 91.6802 55.4448 91.6787 55.3571C91.6802 55.2695 91.6634 55.1825 91.6295 55.1017C91.5957 55.0209 91.5454 54.9479 91.482 54.8875C91.4201 54.8251 91.3464 54.7756 91.2652 54.7418C91.1841 54.7081 91.0971 54.6907 91.0092 54.6907C90.9213 54.6907 90.8342 54.7081 90.7531 54.7418C90.6719 54.7756 90.5983 54.8251 90.5363 54.8875C90.4729 54.9479 90.4227 55.0209 90.3888 55.1017C90.3549 55.1825 90.3382 55.2695 90.3396 55.3571C90.3389 55.4898 90.3779 55.6196 90.4515 55.73C90.525 55.8404 90.6299 55.9263 90.7526 55.9768C90.8753 56.0272 91.0103 56.0399 91.1402 56.0132C91.2701 55.9864 91.3892 55.9216 91.482 55.8268Z" fill="white"/>
<path d="M101.668 61.0124C101.418 60.8486 101.129 60.7544 100.83 60.7395C100.606 60.7406 100.389 60.8134 100.21 60.947C100.031 61.0806 99.8987 61.2681 99.8337 61.482C99.6617 61.9003 99.5796 62.3501 99.5925 62.8022C99.5777 63.2549 99.6758 63.7042 99.8781 64.1096C99.9603 64.316 100.103 64.4927 100.288 64.6162C100.473 64.7397 100.69 64.8043 100.913 64.8014C101.213 64.7997 101.506 64.7043 101.75 64.5285V58.9751H97.1426V57.9469H109.582V58.9751H103.965V60.054C104.481 59.7262 105.081 59.5543 105.692 59.559C106.1 59.5437 106.506 59.6137 106.885 59.7645C107.265 59.9153 107.608 60.1436 107.894 60.4348C108.178 60.7333 108.398 61.0864 108.541 61.4726C108.684 61.8589 108.747 62.2702 108.725 62.6816C108.736 63.146 108.647 63.6073 108.464 64.0344C108.282 64.4614 108.009 64.8442 107.666 65.1568C107.047 65.7216 106.237 66.0301 105.4 66.0199C105.204 66.0185 105.009 66.0015 104.816 65.9692L104.372 64.4904C104.476 64.5972 104.6 64.6825 104.737 64.7413C104.875 64.8001 105.022 64.8313 105.171 64.8331C105.391 64.8267 105.603 64.748 105.774 64.6092C105.945 64.4704 106.065 64.2792 106.117 64.0652C106.274 63.6606 106.351 63.2297 106.345 62.7958C106.345 61.5836 105.882 60.9743 104.987 60.9743C104.627 60.9773 104.275 61.0758 103.965 61.2599V66.5023H101.731V65.8169C101.38 66.0131 100.976 66.0931 100.576 66.0453C99.6953 66.0877 98.8284 65.813 98.1327 65.271C97.7948 64.9881 97.5276 64.6302 97.3524 64.2259C97.1772 63.8215 97.0989 63.3818 97.1236 62.9418C97.0843 62.063 97.3689 61.2003 97.9233 60.5173C98.2061 60.2009 98.5568 59.9526 98.9492 59.791C99.3416 59.6295 99.7655 59.5588 100.189 59.5844C100.542 59.5857 100.894 59.6305 101.236 59.7176L101.668 61.0124Z" fill="white"/>
<path d="M109.892 66.4769V58.9751H109.258V57.9469H113.282V58.9751H112.063V66.4769H109.892Z" fill="white"/>
<path d="M123.365 57.9469V58.9751H122.166V66.4769H119.976V62.0342H118.567C118.636 62.9534 118.502 63.8766 118.174 64.7379C117.981 65.1531 117.669 65.5019 117.279 65.7403C116.888 65.9786 116.435 66.0958 115.978 66.0771C115.602 66.1148 115.222 66.0782 114.861 65.9693C114.499 65.8604 114.163 65.6814 113.87 65.4424C113.603 65.1799 113.395 64.8622 113.263 64.5115C113.13 64.1608 113.075 63.7854 113.103 63.4114C113.077 62.7441 113.304 62.0916 113.737 61.5836C113.953 61.3393 114.22 61.146 114.52 61.0175C114.82 60.8891 115.144 60.8288 115.47 60.841C115.683 60.8407 115.896 60.8641 116.105 60.9108L116.479 62.0469C116.34 61.9812 116.189 61.9445 116.035 61.939C115.87 61.9403 115.709 61.9896 115.571 62.0809C115.434 62.1722 115.326 62.3015 115.26 62.4531C115.108 62.7493 115.032 63.0786 115.038 63.4114C115.033 63.7503 115.109 64.0856 115.26 64.3888C115.32 64.5475 115.425 64.6849 115.563 64.7833C115.701 64.8816 115.865 64.9366 116.035 64.941C116.447 64.941 116.669 64.5919 116.669 63.8938V58.9751H113.039V57.9469H123.365ZM118.567 58.9751V60.8791H119.976V58.9751H118.567Z" fill="white"/>
<path d="M135.803 58.9749H132.363C132.534 59.0188 132.694 59.0979 132.833 59.2072C132.972 59.3165 133.086 59.4535 133.169 59.6096C133.365 59.9381 133.47 60.3125 133.474 60.6949C133.48 61.0431 133.384 61.3855 133.198 61.6798C133.012 61.9742 132.744 62.2076 132.427 62.3514C131.799 62.6627 131.109 62.8276 130.408 62.8337C130.792 62.9379 131.134 63.1599 131.386 63.4684C131.417 63.5128 131.589 63.8111 131.9 64.3569C132.458 65.3661 132.998 65.8674 133.525 65.8674C134.059 65.8094 134.571 65.622 135.016 65.3216L134.553 66.7941C134.008 66.9848 133.436 67.0877 132.858 67.0987C132.403 67.1018 131.952 67.0109 131.534 66.8318C131.116 66.6527 130.739 66.3892 130.427 66.0578C129.928 65.4546 129.47 64.8185 129.056 64.1538C128.606 63.4557 128.2 63.1066 127.819 63.1066H127.546V61.4945C128.133 61.8087 128.784 61.9845 129.45 62.0086C129.892 62.0298 130.325 61.8772 130.656 61.5834C130.812 61.4334 130.935 61.2515 131.015 61.05C131.095 60.8484 131.13 60.6321 131.119 60.4156C131.149 60.1204 131.083 59.8234 130.933 59.5678C130.782 59.3121 130.554 59.1111 130.281 58.9939H127.381V57.9658H135.828L135.803 58.9749Z" fill="white"/>
<path d="M144.215 61.0124C143.965 60.8486 143.676 60.7544 143.377 60.7395C143.154 60.7406 142.936 60.8134 142.757 60.947C142.578 61.0806 142.446 61.2681 142.381 61.482C142.209 61.9003 142.127 62.3501 142.14 62.8022C142.125 63.2549 142.223 63.7042 142.425 64.1096C142.508 64.316 142.651 64.4927 142.835 64.6162C143.02 64.7397 143.238 64.8043 143.46 64.8014C143.761 64.7997 144.054 64.7043 144.298 64.5285V58.9751H139.69V57.9469H152.13V58.9751H146.532V60.054C147.048 59.7262 147.647 59.5543 148.258 59.559C148.666 59.5437 149.072 59.6137 149.452 59.7645C149.831 59.9153 150.174 60.1436 150.46 60.4348C150.744 60.7333 150.964 61.0864 151.107 61.4726C151.25 61.8589 151.313 62.2702 151.292 62.6816C151.303 63.146 151.214 63.6073 151.031 64.0344C150.848 64.4614 150.576 64.8442 150.232 65.1568C149.614 65.7216 148.804 66.0301 147.966 66.0199C147.77 66.0185 147.575 66.0015 147.382 65.9692L146.938 64.4904C147.042 64.5972 147.166 64.6825 147.304 64.7413C147.441 64.8001 147.588 64.8313 147.738 64.8331C147.958 64.8267 148.17 64.748 148.34 64.6092C148.511 64.4704 148.632 64.2792 148.683 64.0652C148.84 63.6606 148.918 63.2297 148.912 62.7958C148.912 61.5836 148.448 60.9743 147.554 60.9743C147.193 60.9792 146.84 61.08 146.532 61.2662V66.5086H144.298V65.8232C143.947 66.0195 143.542 66.0995 143.143 66.0517C142.262 66.0941 141.395 65.8194 140.699 65.2774C140.361 64.9945 140.094 64.6366 139.919 64.2322C139.744 63.8278 139.665 63.3881 139.69 62.9481C139.651 62.0693 139.935 61.2066 140.49 60.5237C140.772 60.2073 141.123 59.959 141.516 59.7974C141.908 59.6358 142.332 59.5651 142.755 59.5907C143.109 59.592 143.46 59.6368 143.803 59.724L144.215 61.0124Z" fill="white"/>
<path d="M152.439 66.4769V58.9751H151.805V57.9469H155.829V58.9751H154.61V66.4769H152.439Z" fill="white"/>
<path d="M165.911 57.9469V58.9751H164.711V66.4769H162.521V62.0342H161.087C161.156 62.9534 161.022 63.8766 160.694 64.7379C160.501 65.1531 160.189 65.5019 159.799 65.7403C159.408 65.9786 158.955 66.0958 158.498 66.0771C158.122 66.1148 157.742 66.0782 157.381 65.9693C157.019 65.8604 156.683 65.6814 156.391 65.4424C156.123 65.1799 155.915 64.8622 155.783 64.5115C155.65 64.1608 155.595 63.7854 155.623 63.4114C155.597 62.7441 155.824 62.0916 156.257 61.5836C156.473 61.3393 156.74 61.146 157.04 61.0175C157.34 60.8891 157.664 60.8288 157.99 60.841C158.193 60.843 158.395 60.8664 158.593 60.9108L158.967 62.0469C158.828 61.9812 158.677 61.9445 158.523 61.939C158.358 61.9403 158.197 61.9896 158.059 62.0809C157.922 62.1722 157.814 62.3015 157.749 62.4531C157.597 62.7493 157.52 63.0786 157.527 63.4114C157.521 63.7503 157.597 64.0856 157.749 64.3888C157.808 64.5475 157.914 64.6849 158.051 64.7833C158.189 64.8816 158.354 64.9366 158.523 64.941C158.936 64.941 159.158 64.5919 159.158 63.8938V58.9751H155.527V57.9469H165.911ZM161.087 58.9751V60.8791H162.496V58.9751H161.087Z" fill="white"/>
<path d="M172.644 65.3151C172.824 65.52 173.055 65.6737 173.314 65.7606C173.572 65.8475 173.849 65.8646 174.116 65.8101L172.511 67.5047C172.263 67.3333 172.009 67.1683 171.762 67.0097C171.525 66.7365 171.385 66.3931 171.362 66.0323C170.854 66.1321 170.338 66.1852 169.82 66.1909C168.812 66.2257 167.823 65.9168 167.014 65.3151C166.605 64.9932 166.284 64.5724 166.082 64.0924C165.88 63.6123 165.803 63.0888 165.859 62.5709C165.915 62.053 166.101 61.5579 166.401 61.132C166.701 60.7061 167.104 60.3634 167.573 60.1362C168.585 59.6856 169.694 59.4979 170.797 59.5903V58.9557H165.605V57.9275H174.688V58.9557H172.993V60.8216C172.42 60.7248 171.841 60.6739 171.26 60.6693C170.546 60.6487 169.837 60.7897 169.185 61.0818C168.86 61.217 168.582 61.4462 168.387 61.7402C168.193 62.0342 168.09 62.3795 168.093 62.732C168.082 63.0271 168.133 63.3212 168.242 63.5955C168.352 63.8699 168.517 64.1183 168.728 64.325C168.936 64.5326 169.184 64.696 169.456 64.8051C169.729 64.9141 170.021 64.9668 170.315 64.9597C170.44 64.9586 170.565 64.9479 170.689 64.9279C170.549 64.7811 170.439 64.6079 170.366 64.4184C170.293 64.2288 170.258 64.0267 170.264 63.8236C170.256 63.59 170.295 63.3573 170.379 63.1392C170.463 62.9211 170.59 62.7221 170.753 62.5543C170.906 62.3847 171.096 62.2529 171.309 62.1693C171.521 62.0856 171.75 62.0523 171.978 62.0719C172.178 62.0715 172.377 62.1112 172.562 62.1886C172.748 62.266 172.916 62.3795 173.057 62.5225C173.325 62.821 173.467 63.2128 173.45 63.6142C173.484 63.9443 173.427 64.2774 173.285 64.5773C173.143 64.8772 172.921 65.1323 172.644 65.3151Z" fill="white"/>
<path d="M175.01 66.4769V58.9751H174.375V57.9469H178.399V58.9751H177.18V66.4769H175.01Z" fill="white"/>
<path d="M186.557 58.9749H183.111C183.282 59.0188 183.442 59.0979 183.581 59.2072C183.72 59.3165 183.834 59.4535 183.917 59.6096C184.113 59.9381 184.218 60.3125 184.222 60.6949C184.228 61.0422 184.133 61.3838 183.948 61.6779C183.763 61.972 183.496 62.206 183.181 62.3514C182.551 62.6617 181.859 62.8266 181.156 62.8337C181.54 62.9379 181.882 63.1599 182.134 63.4684C182.165 63.5128 182.337 63.8111 182.648 64.3569C183.206 65.3661 183.752 65.8674 184.273 65.8674C184.807 65.8094 185.319 65.622 185.764 65.3216L185.301 66.7941C184.756 66.9848 184.184 67.0877 183.606 67.0987C183.151 67.1014 182.701 67.0104 182.282 66.8313C181.864 66.6522 181.487 66.3889 181.175 66.0578C180.676 65.4546 180.218 64.8185 179.804 64.1538C179.381 63.4557 178.969 63.1066 178.567 63.1066H178.294V61.4945C178.882 61.8078 179.533 61.9836 180.198 62.0086C180.642 62.0294 181.077 61.877 181.41 61.5834C181.565 61.4321 181.685 61.2498 181.764 61.0485C181.843 60.8472 181.878 60.6315 181.867 60.4156C181.897 60.1204 181.831 59.8234 181.681 59.5678C181.53 59.3121 181.302 59.1111 181.029 58.9939H178.129V57.9658H186.583L186.557 58.9749Z" fill="white"/>
<path d="M191.239 63.1639V58.9751H190.445V57.9469H199.166V58.9751H197.966V66.4769H195.891V65.2964C195.394 65.7145 194.763 65.9398 194.114 65.9311C193.358 65.9531 192.624 65.6773 192.07 65.1631C191.797 64.9086 191.581 64.5985 191.438 64.2536C191.294 63.9088 191.226 63.5372 191.239 63.1639ZM195.878 63.7288V58.9751H193.397V62.9672C193.397 63.9128 193.815 64.3888 194.666 64.3888C194.913 64.4245 195.165 64.3788 195.384 64.2586C195.602 64.1383 195.776 63.9501 195.878 63.7224V63.7288Z" fill="white"/>
<path d="M199.465 66.4769V58.9751H198.83V57.9469H202.86V58.9751H201.642V66.4769H199.465Z" fill="white"/>
<path d="M209.485 58.9749V60.5362H205.677C205.603 60.5247 205.528 60.5306 205.456 60.5535C205.385 60.5763 205.32 60.6155 205.266 60.6678C205.213 60.7202 205.172 60.7843 205.148 60.8551C205.123 60.9259 205.115 61.0014 205.125 61.0757C205.125 61.4311 205.335 61.6151 205.76 61.6151H207.721C207.983 61.6128 208.244 61.6627 208.487 61.7618C208.73 61.861 208.95 62.0074 209.136 62.1927C209.334 62.3662 209.494 62.5798 209.603 62.8195C209.712 63.0591 209.77 63.3192 209.771 63.5826C209.771 65.2539 208.491 66.1509 205.931 66.2736C205.772 66.2736 205.861 66.3561 206.204 66.4767C206.547 66.5973 206.724 66.6481 206.978 66.7179C207.34 66.8181 207.714 66.8715 208.089 66.8766C208.343 66.8763 208.597 66.8465 208.844 66.7877L206.87 68.3808C206.148 68.0812 205.488 67.6509 204.922 67.1114C204.345 66.5842 203.661 66.188 202.916 65.9499L202.859 64.0459C203.582 64.6781 204.502 65.0413 205.462 65.0741C206.053 65.071 206.626 64.8724 207.093 64.5092C207.196 64.4394 207.281 64.3447 207.338 64.2339C207.396 64.123 207.425 63.9995 207.423 63.8746C207.412 63.592 207.302 63.3222 207.112 63.113C207.033 63.0031 206.93 62.9124 206.812 62.8476C206.693 62.7828 206.561 62.7455 206.426 62.7385H205.081C204.576 62.755 204.077 62.6367 203.634 62.3958C203.414 62.2792 203.231 62.1031 203.106 61.8876C202.982 61.6722 202.92 61.426 202.929 61.1772C202.929 60.0602 203.684 59.5017 205.195 59.5017H207.416V58.9685H202.58V57.9404H210.945V58.9685L209.485 58.9749Z" fill="white"/>
<path d="M209.537 57.9467H207.347C207.161 57.7109 207.041 57.4297 207 57.1321C206.959 56.8345 206.998 56.5313 207.113 56.2538C207.228 55.9763 207.416 55.7346 207.655 55.5536C207.895 55.3725 208.179 55.2587 208.477 55.2239C209.045 55.1568 209.621 55.2021 210.172 55.3572L210.413 56.5758C210.204 56.4047 209.946 56.3027 209.677 56.2839C209.551 56.2799 209.428 56.3233 209.333 56.4056C209.238 56.4879 209.177 56.6031 209.163 56.7281C209.121 56.8728 209.098 57.022 209.093 57.1724C209.081 57.3311 209.116 57.4899 209.196 57.628C209.275 57.7661 209.394 57.8771 209.537 57.9467Z" fill="white"/>
<path d="M210.594 58.9751V57.9469H218.527V58.9751H210.594ZM218.375 61.6153C218.046 61.3197 217.662 61.0919 217.245 60.9449C216.828 60.7978 216.386 60.7345 215.944 60.7585C215.667 60.7546 215.391 60.778 215.119 60.8283C215.581 60.9643 215.985 61.2514 216.264 61.6439C216.544 62.0363 216.684 62.5112 216.661 62.9926C216.636 64.9389 215.722 65.9353 213.919 65.9819C213.517 66.0093 213.114 65.9517 212.736 65.8128C212.357 65.674 212.012 65.4569 211.723 65.1758C211.442 64.887 211.223 64.5439 211.079 64.1674C210.935 63.7909 210.869 63.389 210.886 62.9862C210.861 62.2959 211.072 61.6177 211.484 61.063C211.896 60.5083 212.484 60.11 213.151 59.9334C213.844 59.6865 214.574 59.5641 215.309 59.5717C216.378 59.5684 217.43 59.8278 218.375 60.3269V61.6153ZM214.091 61.7486L215.017 60.9806C213.977 60.9806 213.437 61.6724 213.386 62.9862C213.379 63.3077 213.437 63.6274 213.558 63.9255C213.71 64.3127 213.932 64.5094 214.23 64.5094C214.732 64.5094 214.967 64.0207 214.929 63.037C214.89 62.0532 214.713 61.6978 214.351 61.6978C214.271 61.7026 214.191 61.7197 214.116 61.7486H214.091Z" fill="white"/>
<path d="M217.762 58.9749V57.9467H219.272V58.4798C219.784 58.099 220.91 57.9213 222.649 57.9467V59.2161C222.426 59.1185 222.187 59.0667 221.944 59.0637C221.636 59.0668 221.336 59.1667 221.087 59.3493C220.963 59.4236 220.859 59.5273 220.783 59.6512C220.708 59.7751 220.664 59.9155 220.656 60.0602C220.656 60.6949 220.973 61.0376 221.671 61.0376C221.946 61.0424 222.217 60.9768 222.458 60.8472V62.18C222.233 62.1127 221.995 62.0983 221.762 62.1378C221.53 62.1772 221.31 62.2695 221.119 62.4076C220.929 62.5456 220.772 62.7256 220.662 62.9338C220.552 63.1419 220.491 63.3726 220.484 63.608C220.484 64.6362 221.119 65.1503 222.388 65.1503C223.658 65.1503 224.293 64.9789 224.477 64.6362C224.234 64.5688 224.009 64.4492 223.817 64.2859C223.625 64.1226 223.471 63.9194 223.366 63.6905C223.134 63.2416 223.016 62.7424 223.023 62.2371C223.009 61.661 223.171 61.0943 223.486 60.6123C223.797 60.148 224.274 59.8208 224.819 59.6984V58.9749H223.347V57.9467H229.89V58.9749H227.047V59.7111C227.308 59.7847 227.55 59.9112 227.76 60.0826C227.97 60.254 228.142 60.4667 228.266 60.7075C228.519 61.1929 228.648 61.7339 228.64 62.2815C228.65 62.8519 228.503 63.4141 228.215 63.9063C227.927 64.4093 227.481 64.8022 226.945 65.0233C227.312 65.2564 227.743 65.3695 228.177 65.347C228.58 65.3405 228.982 65.2959 229.376 65.2137L228.208 67.0099C227.715 66.9791 227.233 66.8511 226.79 66.6333C226.347 66.4154 225.951 66.112 225.625 65.7405C225.115 66.0179 224.554 66.1865 223.975 66.2355C223.392 66.3367 222.802 66.3898 222.211 66.3942C221.244 66.4182 220.283 66.2432 219.386 65.8801C218.926 65.7374 218.523 65.4533 218.234 65.0682C217.944 64.6831 217.783 64.2166 217.774 63.7349C217.784 63.4785 217.845 63.2265 217.954 62.9942C218.063 62.7619 218.218 62.554 218.409 62.3831C218.568 62.1908 218.771 62.0401 219.001 61.9439C219.231 61.8477 219.481 61.8089 219.729 61.8309C219.51 61.8458 219.291 61.8163 219.084 61.7443C218.876 61.6724 218.686 61.5593 218.523 61.412C218.364 61.2625 218.238 61.08 218.156 60.8773C218.074 60.6746 218.037 60.4564 218.047 60.2379C218.045 60.0012 218.092 59.7666 218.183 59.5484C218.275 59.3302 218.41 59.1329 218.58 58.9685L217.762 58.9749ZM225.905 60.8789C225.682 60.8789 225.524 61.1328 225.422 61.6469C225.342 61.9794 225.301 62.3203 225.302 62.6623C225.302 63.6524 225.505 64.1284 225.936 64.084C226.247 64.084 226.4 63.6144 226.4 62.675C226.4 62.3433 226.372 62.0121 226.317 61.6849C226.203 61.1264 226.076 60.8599 225.905 60.8599V60.8789Z" fill="white"/>
<path d="M236.15 66.4769V57.9469H238.054V66.4769H236.15Z" fill="white"/>
</g>
<defs>
<clipPath id="clip0">
<rect x="0.46875" y="0.34375" width="239.062" height="72.1497" fill="white"/>
</clipPath>
</defs>
</svg>
