<svg id="Layer_1" data-name="Layer 1" xmlns="http://www.w3.org/2000/svg" viewBox="0 0 376.69 113.68"><defs><style>.cls-1{fill:#fff;}.cls-2,.cls-4{fill:none;}.cls-3{fill:#303849;}.cls-4{stroke:#303849;stroke-linecap:round;stroke-linejoin:round;stroke-width:0;}.cls-5{fill:#f99d1e;}</style></defs><title>rojgari logo</title><path class="cls-1" d="M27.87,95.58s10.49-.55,12.63,0l-1.67,5.65-1.93,4.38-4.06,1.82-4-2.25-.22-5.13v-3Z" transform="translate(-22.25 -8.95)"/><path class="cls-1" d="M46.33,23.2s6.51-10.82,10.62-13L68.4,20.26l.41.75-1.37,1.74.16,1.18,2,7.5s2.15,11.43-1.23,14.32l-.12.09C64.71,48.57,66,47.79,66,47.79l-2.74,4.36L61,52.73l-6.26-4.21-.4-4.09-3.69-.76L48.41,41.3l-1.85-3.16,2.92-.22-2-7.67L45.6,26.39Z" transform="translate(-22.25 -8.95)"/><path class="cls-2" d="M55,42.49c-.22,2.07.7,3,.4,5.13,2.19,1.37,4.4,2.7,6.71,3.94a11,11,0,0,0,3.16-3.94c-3.93.48-8.5-.34-9.47-3.95,1.87.23,3.25,3,5.13,2-1-.22-2-.33-2-1.57,2.55,1,6.34,3.15,9.47,1.18,3.55-5.46-.2-18-.2-18-.59-3.51-1.45-3.75-1.62-4.5C67.73,22.27,55,21.18,53,26.7c2.41,3.61-1.74,8.68-1.18,11.84H47.11C48.43,41.12,51.06,43.76,55,42.49Zm9.88,2c.92-.13,1.47-.62,2.76-.39C68.26,45.51,64.63,45.91,64.88,44.46Zm4.21-7a7.55,7.55,0,0,1-2.24,1.58c-4.18,2.05-8.71-1.49-7.5-2,1.81,1.74,6.32,2.07,7.67,1.18C68.4,37.18,69.43,36.4,69.09,37.47ZM68,28.76c-.93-.13-1.48-.63-2.76-.4A1.4,1.4,0,0,1,68,28.76Zm-.38.78v1.59H66A1.12,1.12,0,1,1,67.6,29.54ZM62.8,28.2a2.33,2.33,0,0,1,.1-.32,2.33,2.33,0,0,0-.1.32c0,.58.47,2,4.91,4.81l-.11.88s-3,.71-3.91-.09c.51-1.08,2.14-.79,3.16-.39C66.09,31.37,61.64,31.12,62.8,28.2Zm-3.06,2.05c-.92-.12-1.48-.62-2.76-.39A1.4,1.4,0,0,1,59.74,30.25ZM59,31v1.58H57.37A1.12,1.12,0,1,1,59,31ZM48.69,39.33c1.49-.66,4.55.06,4.74,2C51.82,40.67,49.16,41.1,48.69,39.33Z" transform="translate(-22.25 -8.95)"/><path class="cls-2" d="M55.56,11.89l-.34.38,4.51,1.39-.91-.77Z" transform="translate(-22.25 -8.95)"/><path class="cls-2" d="M57,11.32l-.51-.43-.19.22Z" transform="translate(-22.25 -8.95)"/><path class="cls-2" d="M49.48,106.82c-1.25-3.94-4.37-8-6.9-12.13a2.23,2.23,0,0,0,.06,1.44c.17.59-.6.26-.71.57-.27,2.58-.58,5.12-.87,7.69a2.87,2.87,0,0,1,.53-.73C44.87,104.06,47.15,105.46,49.48,106.82Z" transform="translate(-22.25 -8.95)"/><path class="cls-2" d="M42.21,95.56a5.14,5.14,0,0,0,.06-1.4,37.14,37.14,0,0,1-1.75-3.28c-4.07-3.43-13.72-2.09-13,4.54,3.23-.62,9.61-.13,14-.28C42.15,94.87,41.69,95.71,42.21,95.56Z" transform="translate(-22.25 -8.95)"/><path class="cls-2" d="M28.62,95.56c.25,1.5.31,3.18,1.27,4-1.22,1.19-.83,4.46,1.56,3.54,1.09-.82-.48-3.44,1.13-3.68,2.41.88-.78,5,1.14,6.09a2,2,0,0,0,2.41-1.13c.43-1.75-1.85-3.49-.86-5.95s3.06-.67,4.11-2.84C35.49,95.81,32.36,95.62,28.62,95.56Z" transform="translate(-22.25 -8.95)"/><path class="cls-2" d="M49.56,74l-1.5,1.18s.36.75.94,1.68a1.42,1.42,0,0,1,.14.39C49.2,76.18,49.39,75.07,49.56,74Z" transform="translate(-22.25 -8.95)"/><path class="cls-2" d="M49.76,24.52a4,4,0,0,0,1.3,1.57,2.5,2.5,0,0,1,.71-1Z" transform="translate(-22.25 -8.95)"/><path class="cls-2" d="M52.28,15.73c-.16.19-.31.37-.46.57l15,4.46h0c.56,0,1.11-.05,1.63-.05L68,20.43Z" transform="translate(-22.25 -8.95)"/><path class="cls-2" d="M47.85,22a5.37,5.37,0,0,0-.34.77,1.78,1.78,0,0,1,1.27.48l4,1.19q.53-.32,1.17-.63Z" transform="translate(-22.25 -8.95)"/><path class="cls-2" d="M51.17,17.1l-.57.74,11.67,3.48c.67-.11,1.34-.22,2-.31Z" transform="translate(-22.25 -8.95)"/><path class="cls-2" d="M54.54,13.06c-.16.17-.31.35-.47.54l8.72,2.6-1.16-1Z" transform="translate(-22.25 -8.95)"/><path class="cls-2" d="M50,18.65l-.56.78,9.12,2.72,1.72-.43Z" transform="translate(-22.25 -8.95)"/><path class="cls-2" d="M48.86,20.26c-.2.3-.38.59-.55.87l7,2.07c.5-.19,1-.37,1.59-.55Z" transform="translate(-22.25 -8.95)"/><path class="cls-2" d="M66,18.83l-1.33-1.07-11.3-3.37-.45.54Z" transform="translate(-22.25 -8.95)"/><path class="cls-2" d="M63.69,102.48c-.44-3.17,1.92-3.52,4.73-5.13.31-4.65-.69-7.61-3.54-9.87-1.18,3.49-4.95,4.93-5.14,8.68-.05,1.1.85,2,1.19,3.16,1,3.49,1.23,7.91,2,11.84a25.8,25.8,0,0,0,5.52-.39C69.64,107,64.05,105.05,63.69,102.48Z" transform="translate(-22.25 -8.95)"/><path class="cls-2" d="M79.87,72.88c1.3,1.47-.37,2.07.4,3.55C84.83,75,89.76,71,94.08,74.85c-1.27-4.52-6-5.56-5.92-11.44-.64-1.21-2-1.71-2.37-3.16-1.18,0-1.34,1-2.37,1.18C87.86,64.48,86.54,73.36,79.87,72.88ZM83,74.46c-.34-.08-.37.15-.4.39h-.79c.08-.33-.15-.37-.4-.39v-.79c.34.07.39-.16.4-.4h.79c-.07.33.16.37.4.4Zm8.29-2.37c-.75.77-1.91.22-1.59-1.19C90.77,70.79,91.43,71.05,91.32,72.09Zm-4.74,1.58c-1.36.3-1.89-.22-1.58-1.58h1.58Z" transform="translate(-22.25 -8.95)"/><path class="cls-3" d="M46.58,80.14,41,73c-.47-.1-4,1.79-5,2.8a9.41,9.41,0,0,0-1.64,2.54l2.35-.53-1.24,2,2.16-.61-1,1.78,2.24-.38-1,1.82,1.83-.72-1,2,2.19-.74-1,2C42.46,84.81,46.58,80.14,46.58,80.14Z" transform="translate(-22.25 -8.95)"/><path class="cls-1" d="M41.59,23.93c1.88-2.25-2.17-5.75-3.16-2.76C38.5,23.08,39.78,23.77,41.59,23.93Z" transform="translate(-22.25 -8.95)"/><path class="cls-1" d="M41.19,24.72c-2.12.15-2.39-1.55-3.95-2C37.21,25,39.8,26.2,41.19,24.72Z" transform="translate(-22.25 -8.95)"/><path class="cls-1" d="M50.27,27.49c-2.21.23-1.9-2-3.55-2.37-.69,1.4,1.07,3.27,1.57,4.74C49.56,29.67,49.65,28.32,50.27,27.49Z" transform="translate(-22.25 -8.95)"/><path class="cls-1" d="M36.85,28.28c-.63.29.09,1.93-1.18,1.58-.32-2.17,1.31-2.37,1.18-4.35-1.24-.19-1.39.72-2.76.4-2.63,2.82-5,9.34-2.37,13.81-.29-2.77-.62-4.91,1.58-5.92a1.72,1.72,0,0,0,1.58.79c.24-2.65,2.22-3.57,3.55-5.13C36.88,30.08,37.61,28.44,36.85,28.28Z" transform="translate(-22.25 -8.95)"/><path class="cls-1" d="M75.52,37.35c.32-3.64-1.07-9,3.56-8.28a4.89,4.89,0,0,1,.79,3.55c4.72-2.09-3.65-6.69-5.13-2.76C75.14,32.22,73.87,36.25,75.52,37.35Z" transform="translate(-22.25 -8.95)"/><path class="cls-3" d="M59.74,30.25A1.4,1.4,0,0,0,57,29.86C58.26,29.63,58.82,30.13,59.74,30.25Z" transform="translate(-22.25 -8.95)"/><path class="cls-1" d="M90.13,30.25c-.83-.33-1.54-1.62-2.37-.79C87.52,30.86,89.81,31.75,90.13,30.25Z" transform="translate(-22.25 -8.95)"/><path class="cls-1" d="M50.27,29.86c-.5.71-2.11,2.59-.4,3.15C49.73,31.91,51.38,30.61,50.27,29.86Z" transform="translate(-22.25 -8.95)"/><path class="cls-1" d="M51.46,30.25c-.72,2.18-1.28,4.52-2,6.71A8,8,0,0,0,51.46,30.25Z" transform="translate(-22.25 -8.95)"/><path class="cls-3" d="M59,32.62V31a1.12,1.12,0,1,0-1.58,1.58Z" transform="translate(-22.25 -8.95)"/><path class="cls-3" d="M68,28.76a1.4,1.4,0,0,0-2.76-.4C66.5,28.13,67.05,28.63,68,28.76Z" transform="translate(-22.25 -8.95)"/><path class="cls-3" d="M66,31.13H67.6V29.54A1.12,1.12,0,1,0,66,31.13Z" transform="translate(-22.25 -8.95)"/><path class="cls-1" d="M52.24,52.75A193.61,193.61,0,0,0,38,33.41c-1.86,2.92,3.16,8.07,5.13,11.44,2.28,3.9,4,7.46,5.92,9.87C50.79,54.72,50.54,52.76,52.24,52.75Z" transform="translate(-22.25 -8.95)"/><path class="cls-1" d="M74.74,60.64c6.05-5,4.16-17.94,6.31-26.84-1.47.78-2.79-.15-4.34-.39C77.35,43.53,74.26,52,74.74,60.64Z" transform="translate(-22.25 -8.95)"/><path class="cls-1" d="M85,36.57c1.45-.14,1.81-1.36,2.37-2.37-1.2-1.59-3.14-.27-3.16,1.58C84.66,35.86,84.83,36.21,85,36.57Z" transform="translate(-22.25 -8.95)"/><path class="cls-3" d="M59.35,37.08c-1.21.48,3.32,4,7.5,2a7.55,7.55,0,0,0,2.24-1.58c.34-1.07-.69-.29-2.07.79C65.67,39.15,61.16,38.82,59.35,37.08Z" transform="translate(-22.25 -8.95)"/><path class="cls-1" d="M102,38.14a1.46,1.46,0,0,0-1.57-1.57A1.46,1.46,0,0,0,102,38.14Z" transform="translate(-22.25 -8.95)"/><path class="cls-1" d="M84.21,37c-1.49.36-3.35,2.42-2.37,3.95C82.17,39.13,83.88,38.73,84.21,37Z" transform="translate(-22.25 -8.95)"/><path class="cls-1" d="M96.05,43.67c2.36-.94,3.11-3.47,4.74-5.13C98.75,38.08,96.15,42.19,96.05,43.67Z" transform="translate(-22.25 -8.95)"/><path class="cls-3" d="M48.69,39.33c.47,1.77,3.13,1.34,4.74,2C53.24,39.39,50.18,38.67,48.69,39.33Z" transform="translate(-22.25 -8.95)"/><path class="cls-1" d="M85,49.2c-.66,1.48,1.83,1.79.79,2.36-1.08.29-.79-.78-1.58-.78-.27,1.56-2,1.72-2.37,3.15.44.27,2,1.31,1.19,1.58-.52.06-1.19-1.6-1.59-.39,1.24.34,1.3,1.86,2.38,2.36,2.4-3,4.53-6.25,7.5-8.68,3.23,1.9,6.19,4.07,9.86,5.53.46-1,1.57-1.32,1.58-2.77-2.52-.38-2.6-4.2-5.13-2.36.17-.76.85-1,.79-2a3.54,3.54,0,0,1-2.37-2.37c-1.46.12-1.07,2.09-2.76,2,.09-1.49,1.48-1.68,1.58-3.16-1-1.15-1.85-2.36-3.55-2.76-.36.83-1.2,1.16-1.19,2.36.25,1.07,1.65,1,1.58,2.37-1-.45-1.32-1.57-2.75-1.57.21,1.39-1.41,1-1.2,2.36-.45,1.16,1.9,1.47.79,2-.7-.36-1.15-1-2-1.19C86.36,48.18,86.24,49.25,85,49.2Z" transform="translate(-22.25 -8.95)"/><path class="cls-1" d="M85.79,46.43c-.62-2.67-3.64-2.93-4.74-5.13C81.18,44.46,84.18,44.75,85.79,46.43Z" transform="translate(-22.25 -8.95)"/><path class="cls-1" d="M51.85,48c.5-.94,1.44-1.45,1.18-3.16a10.32,10.32,0,0,1-3.16-1.18C48.48,45.5,49.88,47.43,51.85,48Z" transform="translate(-22.25 -8.95)"/><path class="cls-3" d="M64.88,44.46c-.25,1.45,3.38,1,2.76-.39C66.35,43.84,65.8,44.33,64.88,44.46Z" transform="translate(-22.25 -8.95)"/><path class="cls-1" d="M80.66,52.75c1.22-2.06,3.19-3.4,4-5.92-1.56-.42-2-2-4-2C81.17,47.74,79.45,50.48,80.66,52.75Z" transform="translate(-22.25 -8.95)"/><path class="cls-1" d="M67.64,57.88c-2.23-.12-3.51.7-5.92.39-.82,6.88,4.58,7.53,6.7,11.45.5-2.22,2.14-1.74,4-2a117.25,117.25,0,0,0-5.52-20.53C66.86,51,67.45,54.24,67.64,57.88Z" transform="translate(-22.25 -8.95)"/><path class="cls-1" d="M53.82,49.2c-.55,1.76.67,3.77,2,2.36C54.91,51,55.47,49,53.82,49.2Z" transform="translate(-22.25 -8.95)"/><path class="cls-1" d="M88.55,53.93c.41-1.19,2.79-2.45,2-3.55C90.12,51.56,87.74,52.83,88.55,53.93Z" transform="translate(-22.25 -8.95)"/><path class="cls-1" d="M60.14,60.25c.31-1.63-.61-2-.4-3.56-1.34-.9-4-.5-3.94-2.76,1.53-.3,2,1.46,3.15.4.11-.9-.1-1.49-.79-1.58-5.57-.33-7.95,3.21-10.65,6.71a114,114,0,0,1-17.76-2c1.61-.88,4.15-.84,6.7-.79.39-2.7-2.55-2.17-3.94-2-3.49.49-8.92,4.24-9.08,7.5,7.18,6.65,19.19-3,25.65-.4C52.21,60.9,55.9,58.79,60.14,60.25Z" transform="translate(-22.25 -8.95)"/><path class="cls-1" d="M77.11,62.22c1.46-1,3.87-3.22,2.36-5.92-2.59,3.44-9.24,10.86-3.55,14.6-.85-.33-.63-1.73-1.18-2.36C76.62,67.52,77.48,65.49,77.11,62.22Z" transform="translate(-22.25 -8.95)"/><path class="cls-1" d="M82.24,57.88c-.75,0-.27-1.31-1.19-1.19.23,3.79-2.08,5-3.15,7.5C80.75,63.5,82,61.18,82.24,57.88Z" transform="translate(-22.25 -8.95)"/><path class="cls-1" d="M60.53,70.9c.54-1.69,1.19-3.28,3.16-3.55-2-2.87-4.16-7.21-9.48-5.53C56.21,65,57.58,68.72,60.53,70.9Z" transform="translate(-22.25 -8.95)"/><path class="cls-1" d="M54.61,67.75v1.57a2.5,2.5,0,0,1,2,0c-1.12-2.56-2-5.34-4.34-6.71.19,2.88-.84,4.07,0,5.93C53.39,68.64,53.45,67.64,54.61,67.75Z" transform="translate(-22.25 -8.95)"/><path class="cls-1" d="M83.82,67c1.78-1.16.05-5.12-2-3.55C82.84,65.12,82.46,66,83.82,67Z" transform="translate(-22.25 -8.95)"/><path class="cls-1" d="M78.69,69.32c.51-1.14.32-2.27-.79-2.76C78,67.68,77.55,69.27,78.69,69.32Z" transform="translate(-22.25 -8.95)"/><path class="cls-1" d="M58.56,72.09c-1.48.41-.78-1.33-1.58-1.58-.09,3.42-4.64,0-5.92,2V78h6.31C57.83,74.56,56.68,73.6,58.56,72.09Z" transform="translate(-22.25 -8.95)"/><path class="cls-1" d="M66.45,70.9C65,72.63,64,74.74,61.32,75.24c-.86-.08-2.13-1.78-2.76-.78.89.41.14,2.48.39,3.54q8.28-.39,16.19-1.17c-.11-2.53-1.35-3.92-1.59-6.32C71.32,70.76,68.28,71.46,66.45,70.9Zm2.76,5.93c-2.12-.27-1.56-3.42-1.18-5.14C69.42,72.28,69.38,76,69.21,76.83Z" transform="translate(-22.25 -8.95)"/><path class="cls-1" d="M76.71,70.51c-.19,1.3,2.28,1.66,2.37.39A3.39,3.39,0,0,0,76.71,70.51Z" transform="translate(-22.25 -8.95)"/><path class="cls-3" d="M91.32,72.09c.11-1-.55-1.3-1.59-1.19C89.41,72.31,90.57,72.86,91.32,72.09Z" transform="translate(-22.25 -8.95)"/><path class="cls-3" d="M69.21,76.83c.17-.88.21-4.55-1.18-5.14C67.65,73.41,67.09,76.56,69.21,76.83Z" transform="translate(-22.25 -8.95)"/><path class="cls-3" d="M86.58,73.67V72.09H85C84.69,73.45,85.22,74,86.58,73.67Z" transform="translate(-22.25 -8.95)"/><path class="cls-3" d="M82.63,73.27h-.79c0,.24-.06.47-.4.4v.79c.25,0,.48.06.4.39h.79c0-.24.06-.47.4-.39v-.79C82.79,73.64,82.56,73.6,82.63,73.27Z" transform="translate(-22.25 -8.95)"/><path class="cls-1" d="M89.34,74.06c-1,3.86-6.08,1.26-7.9,4.34-1,.31-2.24-2.27-2.36-.4,9.9,9.32,19.15,19.28,30,27.64,1.21-.64,2.47-1.22,2.77-2.77q-8.4-13.31-17-26.44C92.09,76.57,91.25,74.79,89.34,74.06Z" transform="translate(-22.25 -8.95)"/><path class="cls-1" d="M73.17,81.56c.35-1.35,2.61-.8,2.35-2.76a116,116,0,0,1-23.67,1.58C48.4,84,44.64,87.38,42,91.82c3.35,4.55,7.32,8.47,9.48,14.21,2.25.42,3.13-.55,4.73-.79.77,2.26,2.53,3.52,4.74,4.34a53.61,53.61,0,0,0-4.74-18.15c1.58-.28,1,1.66,2.37,1.58,3.19-3.13,5-7.65,8.68-10.26.28,1.71-1.14,1.75-1.19,3.15,3.42,2.38,8.13,3.45,9.87,7.5-1.5.29-2.82-1.62-3.94-.39.54,1,2.21,2.22,1.19,3.55-1.73-.14-2.23-3.1-4-2,.34,2.69,2.37,3.68,4,5.13,2.27-3.64,5.59-6.25,8.27-9.48-.48-1.48-2.75-1.17-4.33-1.58C75.91,86.17,74.1,84.3,73.17,81.56Z" transform="translate(-22.25 -8.95)"/><path class="cls-1" d="M79.87,87.48c-1.32-2.36-2-5.42-4.35-6.71C74.3,82.9,76.77,87.16,79.87,87.48Z" transform="translate(-22.25 -8.95)"/><path class="cls-1" d="M70.39,102.48c2.13-6.66-5.87-1.86,0,0Z" transform="translate(-22.25 -8.95)"/><path class="cls-1" d="M70.79,106.82c-1.44-1.14,1.06-2.89,0-3.55-1.91,2.26-3.38-1.92-3.94-3.55-1.72-.14-2.08,1.08-2.37,2.36.89,1.87,3.19,2.33,4.34,4-.19,5,4,7.43,8.29,6.71-1.66-2.29-3-4.88-4.74-7.1C72.49,106.67,71.83,106.93,70.79,106.82Z" transform="translate(-22.25 -8.95)"/><path class="cls-1" d="M42.37,104.84c0,.79-1.07.51-.78,1.59,1.68,4.62,5.55,7.67,9.87,9.86,1.54.79,4.45,3,5.52.79C52.37,112.75,50.12,106.05,42.37,104.84Z" transform="translate(-22.25 -8.95)"/><path class="cls-1" d="M56.19,109.58c.57,1.53,2.12,2.08,4,2.37C59.86,110.37,57.53,108.78,56.19,109.58Z" transform="translate(-22.25 -8.95)"/><path class="cls-1" d="M53,110.37a14.41,14.41,0,0,0,9.47,7.5c0-2.11-1-3.19-1.57-4.74C57.13,113.63,56.29,109.09,53,110.37Z" transform="translate(-22.25 -8.95)"/><path class="cls-1" d="M44.75,116.29c.82,1.67,3.23,1.76,5.92,1.58C49.74,116.26,46.55,114.65,44.75,116.29Z" transform="translate(-22.25 -8.95)"/><path class="cls-1" d="M58.16,117.08c0,1.44-1.12,1.77-1.58,2.76,1.21,1,3.35,2,5.14,1.19A4.16,4.16,0,0,0,58.16,117.08Z" transform="translate(-22.25 -8.95)"/><path class="cls-1" d="M98.81,37.35c-.55,1.82-3.41,3.42-3.15,4.74C96.47,40.52,99.3,38.91,98.81,37.35Z" transform="translate(-22.25 -8.95)"/><path class="cls-1" d="M81.44,67c0,.78-1.07.5-.78,1.58,1.24.44.89,0,2.37,0a10.27,10.27,0,0,0-3.16-4C78.52,66.06,80.53,66.55,81.44,67Z" transform="translate(-22.25 -8.95)"/><path class="cls-4" d="M62.8,28.2a2.33,2.33,0,0,1,.1-.32" transform="translate(-22.25 -8.95)"/><path class="cls-3" d="M92.11,68.14a16.38,16.38,0,0,0-2.38-1.58c-.3-1.62.61-2,.4-3.55-2.52-.63-3.39-2.93-3.55-5.92-1.57-1.28-.93,2.27-2.76,2,1.89-3.62,6.79-4.25,9.08-7.5a49.64,49.64,0,0,1,7.5,4.35c1.95-.55,2.51-2.49,3.54-3.95-1.7-2.51-4.54-3.87-5.92-6.71,1.54-2.81,4.29-4.4,5.53-7.5A9.11,9.11,0,0,0,100,35c-2.07,2.15-3.56,4.85-5.92,6.71-1.43-.29-1.13-2.3-2.76-2.37-2.28,1.28-3,4.11-5.13,5.52-1.12-1.26-3.2-1.54-3.56-3.55C85.1,39,86.94,36.14,90.53,35a3.5,3.5,0,0,0,3.55,1.18c3.14-6.08-4.18-11.11-10.66-11.45C80.52,27,83.74,29.46,85,31c-1.06,2.1-1.57,4.75-3.16,6.31,2.45-6.89-2.61-12.42-6.7-9.47-4.62,3.33,1.54,16.47-2,22.11a11.53,11.53,0,0,1-4.75-3.56c4.48-5.24,1.44-15.92-.44-22.88-1.46-.38,1.85-1.87,1.32-3.17-1-1.9-4.07-3.84-6.82-5.88h0c-2.41-1.77-4.56-3.61-4.84-5.55-3.41.8-12.48,12.27-12.88,17-.39,4.47,4.32,7.33,3.54,11.44-.61.75-1.53-.56-2.36.4-.65,2.11,2.21,2.77.79,4.34-3.58-3.53-6.78-7.43-7.5-13.81.84-1.66,3.1-1.9,3.94-3.56,1.49-8.69-9.37-6-7.49,0-8.79,1.13-7.56,16-2.37,20.13,2.05,0,1.51-1.64,2-2.36.31,1.21.79,1.26,2,.78,1.5-1.91-2.29-3.63-.79-5.52,3.6,2.59,5.08,7.29,7.11,11.45-1.3-.15-.8-2.1-2.37-2-2.18,1-5,1.32-7.1,2.37-.4,1.54.87,2.29,0,3.16-5.73,1.38-10.53,3.69-11.84,9.47,5.18,7.64,16.86,3,25.65,1.58,2.32,2.49.45,4.19,0,5.92.52.19,1.7-.28,1.9.23a41.34,41.34,0,0,0-3.54,2.9l-1.44-1.33s-.88-.83-3.1.63l5.72,7.54,1.5-1.18a1.82,1.82,0,0,0,.21-.39,4.77,4.77,0,0,0,.72,2.65c-3.09,3-6.39,5.74-9,9.22-4-3.33-13.53-2.3-13.85,3.59,0,.86.42,1.54.14,2.69.1.38.78.16.71.71.54,4.28,1,8.65,1.41,13H40.51c.08-1.08.21-2.11.31-3.17.51,1.78,2,3.68,2.34,5.5-7.46,1-16.2.63-20.52,4.74,8.78,2.38,21,4.75,31.57,2.76,2.53.92,4.64,3.86,8.29,2.37a9.72,9.72,0,0,0,.79-7.5c5.72-1.49,11.31.42,15.4-1.58-.78-2.64-2.8-4-4-6.31-.15-1.47,1.6-1,1.18-2.76-1-1.07-3.52-.69-3.55-2.77,3-2.2,9.94-7.88,10.26-11.05.59-5.71-7.76-9.11-6.31-15.78.5.54,1.86.24,2.37.78-.18,1.14-1.4,1.24-1.19,2.76,10.83,9.57,20.66,20.14,32,29.21,6.63-3.13,1.25-8.51-1.58-13C102.53,85.63,95.88,75.78,92.11,68.14Zm-6.32-7.89c.39,1.45,1.73,2,2.37,3.16-.1,5.88,4.65,6.92,5.92,11.44C89.76,71,84.83,75,80.27,76.43c-.77-1.48.9-2.08-.4-3.55,6.67.48,8-8.4,3.55-11.45C84.45,61.27,84.61,60.25,85.79,60.25ZM77.9,64.19c1.07-2.47,3.38-3.71,3.15-7.5.92-.12.44,1.15,1.19,1.19C82,61.18,80.75,63.5,77.9,64.19Zm.79,5.13c-1.14,0-.73-1.64-.79-2.76C79,67.05,79.2,68.18,78.69,69.32Zm-2-35.91c1.55.24,2.87,1.17,4.34.39-2.15,8.9-.26,21.84-6.31,26.84C74.26,52,77.35,43.53,76.71,33.41Zm4,11.44c2,0,2.39,1.56,4,2-.76,2.52-2.73,3.86-4,5.92C79.45,50.48,81.17,47.74,80.66,44.85ZM83.82,67c-1.36-1-1-1.84-2-3.55C83.87,61.84,85.6,65.8,83.82,67Zm-3.95-2.37a10.27,10.27,0,0,1,3.16,4c-1.48,0-1.13.44-2.37,0-.29-1.08.78-.8.78-1.58C80.53,66.55,78.52,66.06,79.87,64.59Zm8.68-10.66c-.81-1.1,1.57-2.37,2-3.55C91.34,51.48,89,52.74,88.55,53.93ZM102,38.14a1.46,1.46,0,0,1-1.57-1.57A1.46,1.46,0,0,1,102,38.14Zm-1.18.4c-1.63,1.66-2.38,4.19-4.74,5.13C96.15,42.19,98.75,38.08,100.79,38.54Zm-2-1.19c.49,1.56-2.34,3.17-3.15,4.74C95.4,40.77,98.26,39.17,98.81,37.35ZM86.58,47.22c.82.23,1.27.83,2,1.19,1.11-.51-1.24-.82-.79-2-.21-1.39,1.41-1,1.2-2.36,1.43,0,1.76,1.12,2.75,1.57.07-1.38-1.33-1.3-1.58-2.37,0-1.2.83-1.53,1.19-2.36,1.7.4,2.59,1.61,3.55,2.76-.1,1.48-1.49,1.67-1.58,3.16,1.69.11,1.3-1.86,2.76-2a3.54,3.54,0,0,0,2.37,2.37c.06,1-.62,1.22-.79,2,2.53-1.84,2.61,2,5.13,2.36,0,1.45-1.12,1.78-1.58,2.77-3.67-1.46-6.63-3.63-9.86-5.53-3,2.43-5.1,5.69-7.5,8.68-1.08-.5-1.14-2-2.38-2.36.4-1.21,1.07.45,1.59.39.86-.27-.75-1.31-1.19-1.58.41-1.43,2.1-1.59,2.37-3.15.79,0,.5,1.07,1.58.78,1-.57-1.45-.88-.79-2.36C86.24,49.25,86.36,48.18,86.58,47.22Zm3.55-17c-.32,1.5-2.61.61-2.37-.79C88.59,28.63,89.3,29.92,90.13,30.25Zm-2.76,4c-.56,1-.92,2.23-2.37,2.37-.17-.36-.34-.71-.79-.79C84.23,33.93,86.17,32.61,87.37,34.2ZM84.21,37c-.33,1.77-2,2.17-2.37,3.95C80.86,39.38,82.72,37.32,84.21,37Zm1.58,9.47c-1.61-1.68-4.61-2-4.74-5.13C82.15,43.5,85.17,43.76,85.79,46.43ZM74.74,29.86c1.48-3.93,9.85.67,5.13,2.76a4.89,4.89,0,0,0-.79-3.55c-4.63-.68-3.24,4.64-3.56,8.28C73.87,36.25,75.14,32.22,74.74,29.86ZM73.55,70.51c.24,2.4,1.48,3.79,1.59,6.32Q67.24,77.61,59,78c-.25-1.06.5-3.13-.39-3.54.63-1,1.9.7,2.76.78,2.66-.5,3.71-2.61,5.13-4.34C68.28,71.46,71.32,70.76,73.55,70.51ZM57.37,78H51.06V72.48c1.28-2,5.83,1.45,5.92-2,.8.25.1,2,1.58,1.58C56.68,73.6,57.83,74.56,57.37,78ZM54.21,61.82c5.32-1.68,7.47,2.66,9.48,5.53-2,.27-2.62,1.86-3.16,3.55C57.58,68.72,56.21,65,54.21,61.82Zm18.16,5.93c-1.81.23-3.45-.25-4,2-2.12-3.92-7.52-4.57-6.7-11.45,2.41.31,3.69-.51,5.92-.39-.19-3.64-.78-6.86-.79-10.66A117.25,117.25,0,0,1,72.37,67.75Zm-5.6-47h0l-15-4.46c.15-.2.3-.38.46-.57L68,20.43l.36.29C67.88,20.72,67.33,20.74,66.77,20.77ZM51.46,30.25a8,8,0,0,1-2,6.71C50.18,34.77,50.74,32.43,51.46,30.25Zm-1.19-.39c1.11.75-.54,2.05-.4,3.15C48.16,32.45,49.77,30.57,50.27,29.86Zm1.5-4.74a2.5,2.5,0,0,0-.71,1,4,4,0,0,1-1.3-1.57m3-.1-4-1.19a1.78,1.78,0,0,0-1.27-.48,5.37,5.37,0,0,1,.34-.77l6.07,1.81Q53.28,24.11,52.75,24.42Zm2.53-1.22-7-2.07c.17-.28.35-.57.55-.87l8,2.39C56.32,22.83,55.78,23,55.28,23.2Zm3.27-1.05-9.12-2.72.56-.78,10.28,3.07Zm3.72-.83L50.6,17.84l.57-.74L64.28,21C63.61,21.1,62.94,21.21,62.27,21.32Zm.52-5.12-8.72-2.6c.16-.19.31-.37.47-.54l7.09,2.18Zm-3.06-2.54-4.51-1.39.34-.38,3.26,1ZM57,11.32l-.7-.21.19-.22Zm-3.58,3.07,11.3,3.37L66,18.83l-13.08-3.9Zm-5.1,15.47c-.5-1.47-2.26-3.34-1.57-4.74,1.65.32,1.34,2.6,3.55,2.37C49.65,28.32,49.56,29.67,48.29,29.86Zm3.56,8.68c-.56-3.16,3.59-8.23,1.18-11.84,2-5.52,14.7-4.43,13.57-3.95.17.75,1,1,1.62,4.5,0,0,3.75,12.54.2,18-3.13,2-6.92-.17-9.47-1.18-.06,1.24,1,1.35,2,1.57-1.88,1.08-3.26-1.74-5.13-2,1,3.61,5.54,4.43,9.47,3.95a11,11,0,0,1-3.16,3.94C59.8,50.32,57.59,49,55.4,47.62c.3-2.15-.62-3.06-.4-5.13-3.94,1.27-6.57-1.37-7.89-4Zm3.95,13c-1.31,1.41-2.53-.6-2-2.36C55.47,49,54.91,51,55.8,51.56ZM53,44.85c.26,1.71-.68,2.22-1.18,3.16-2-.58-3.37-2.51-2-4.34A10.32,10.32,0,0,0,53,44.85ZM41.59,23.93c-1.81-.16-3.09-.85-3.16-2.76C39.42,18.18,43.47,21.68,41.59,23.93Zm-.4.79c-1.39,1.48-4,.25-3.95-2C38.8,23.17,39.07,24.87,41.19,24.72Zm-6.31,9.87a1.72,1.72,0,0,1-1.58-.79c-2.2,1-1.87,3.15-1.58,5.92-2.58-4.47-.26-11,2.37-13.81,1.37.32,1.52-.59,2.76-.4.13,2-1.5,2.18-1.18,4.35,1.27.35.55-1.29,1.18-1.58.76.16,0,1.8,1.58,1.18C37.1,31,35.12,31.94,34.88,34.59Zm8.28,10.26c-2-3.37-7-8.52-5.13-11.44A193.61,193.61,0,0,1,52.24,52.75c-1.7,0-1.45,2-3.16,2C47.19,52.31,45.44,48.75,43.16,44.85Zm5.92,17c-6.46-2.56-18.47,7.05-25.65.4.16-3.26,5.59-7,9.08-7.5,1.39-.2,4.33-.73,3.94,2-2.55,0-5.09-.09-6.7.79a114,114,0,0,0,17.76,2c2.7-3.5,5.08-7,10.65-6.71.69.09.9.68.79,1.58-1.11,1.06-1.62-.7-3.15-.4,0,2.26,2.6,1.86,3.94,2.76-.21,1.53.71,1.93.4,3.56C55.9,58.79,52.21,60.9,49.08,61.82Zm3.16.79c2.32,1.37,3.22,4.15,4.34,6.71a2.5,2.5,0,0,0-2,0V67.75c-1.16-.11-1.22.89-2.37.79C51.4,66.68,52.43,65.49,52.24,62.61ZM49,76.82c-.58-.93-.94-1.68-.94-1.68L49.56,74c-.17,1.11-.36,2.22-.42,3.25A1.42,1.42,0,0,0,49,76.82ZM35.27,98.4c-1,2.46,1.29,4.2.86,5.95a2,2,0,0,1-2.41,1.13c-1.92-1.09,1.27-5.21-1.14-6.09-1.61.24,0,2.86-1.13,3.68-2.39.92-2.78-2.35-1.56-3.54-1-.79-1-2.47-1.27-4,3.74.06,6.87.25,10.76,0C38.33,97.73,36.26,96,35.27,98.4Zm-7.79-3c-.68-6.63,9-8,13-4.54a37.14,37.14,0,0,0,1.75,3.28,5.14,5.14,0,0,1-.06,1.4c-.52.15-.06-.69-.7-.42C37.09,95.29,30.71,94.8,27.48,95.42ZM41.93,96.7c.11-.31.88,0,.71-.57a2.23,2.23,0,0,1-.06-1.44c2.53,4.17,5.65,8.19,6.9,12.13-2.33-1.36-4.61-2.76-7.89-3.16a2.87,2.87,0,0,0-.53.73C41.35,101.82,41.66,99.28,41.93,96.7Zm2.82,19.59c1.8-1.64,5,0,5.92,1.58C48,118.05,45.57,118,44.75,116.29Zm6.71,0c-4.32-2.19-8.19-5.24-9.87-9.86-.29-1.08.78-.8.78-1.59,7.75,1.21,10,7.91,14.61,12.24C55.91,119.27,53,117.08,51.46,116.29Zm5.12,3.55c.46-1,1.57-1.32,1.58-2.76a4.16,4.16,0,0,1,3.56,4C59.93,121.82,57.79,120.8,56.58,119.84ZM53,110.37c3.26-1.28,4.1,3.26,7.9,2.76.56,1.55,1.57,2.63,1.57,4.74A14.41,14.41,0,0,1,53,110.37Zm3.16-.79c1.34-.8,3.67.79,4,2.37C58.31,111.66,56.76,111.11,56.19,109.58Zm12.23,1.19a25.8,25.8,0,0,1-5.52.39c-.74-3.93-.92-8.35-2-11.84-.34-1.11-1.24-2.06-1.19-3.16.19-3.75,4-5.19,5.14-8.68,2.85,2.26,3.85,5.22,3.54,9.87-2.81,1.61-5.17,2-4.73,5.13C64.05,105.05,69.64,107,68.42,110.77Zm2-8.29c-5.87-1.86,2.13-6.66,0,0Zm6.72,10.26c-4.25.72-8.48-1.7-8.29-6.71-1.15-1.62-3.45-2.08-4.34-4,.29-1.28.65-2.5,2.37-2.36.56,1.63,2,5.81,3.94,3.55,1.06.66-1.44,2.41,0,3.55,1,.11,1.7-.15,1.58-1.18C74.1,107.86,75.45,110.45,77.11,112.74Zm4.33-22.5c-2.68,3.23-6,5.84-8.27,9.48-1.59-1.45-3.62-2.44-4-5.13,1.73-1.13,2.23,1.83,4,2,1-1.33-.65-2.59-1.19-3.55,1.12-1.23,2.44.68,3.94.39-1.74-4.05-6.45-5.12-9.87-7.5,0-1.4,1.47-1.44,1.19-3.15-3.7,2.61-5.49,7.13-8.68,10.26-1.4.08-.79-1.86-2.37-1.58a53.61,53.61,0,0,1,4.74,18.15c-2.21-.82-4-2.08-4.74-4.34-1.6.24-2.48,1.21-4.73.79-2.16-5.74-6.13-9.66-9.48-14.21,2.66-4.44,6.42-7.79,9.87-11.44A116,116,0,0,0,75.52,78.8c.26,2-2,1.41-2.35,2.76.93,2.74,2.74,4.61,3.94,7.1C78.69,89.07,81,88.76,81.44,90.24Zm-1.57-2.76c-3.1-.32-5.57-4.58-4.35-6.71C77.91,82.06,78.55,85.12,79.87,87.48ZM74.74,68.54c.55.63.33,2,1.18,2.36-5.69-3.74,1-11.16,3.55-14.6,1.51,2.7-.9,4.88-2.36,5.92C77.48,65.49,76.62,67.52,74.74,68.54Zm2,2a3.39,3.39,0,0,1,2.37.39C79,72.17,76.52,71.81,76.71,70.51Zm32.36,35.13C98.23,97.28,89,87.32,79.08,78c.12-1.87,1.32.71,2.36.4,1.82-3.08,6.88-.48,7.9-4.34,1.91.73,2.75,2.51,5.53,2.37q8.59,13.11,17,26.44C111.54,104.42,110.28,105,109.07,105.64Z" transform="translate(-22.25 -8.95)"/><path class="cls-3" d="M66.85,33.41c-1-.4-2.65-.69-3.16.39.9.8,3.91.09,3.91.09l.11-.88c-4.44-2.79-4.95-4.23-4.91-4.81C61.64,31.12,66.09,31.37,66.85,33.41Z" transform="translate(-22.25 -8.95)"/><path class="cls-5" d="M390.74,79.31a4,4,0,1,1,4,4A4,4,0,0,1,390.74,79.31Z" transform="translate(-22.25 -8.95)"/><path class="cls-5" d="M391.5,62.86l1,1.89a3.06,3.06,0,0,0-.77,1,3.24,3.24,0,0,0-.22,1.22,2.85,2.85,0,0,0,.76,2,2.56,2.56,0,0,0,1.94.79,2.46,2.46,0,0,0,1.88-.76,2.7,2.7,0,0,0,.73-2,2.88,2.88,0,0,0-1-2.37L397.05,63a5.5,5.5,0,0,1,.48,7.83,4.73,4.73,0,0,1-5.72.69,4.56,4.56,0,0,1-1.73-1.83,5.78,5.78,0,0,1-.1-5A4.75,4.75,0,0,1,391.5,62.86Z" transform="translate(-22.25 -8.95)"/><path class="cls-5" d="M389.45,56.58a4.84,4.84,0,0,1,.63-2.4,4.71,4.71,0,0,1,4.1-2.38,4.77,4.77,0,0,1,2.39.63,4.59,4.59,0,0,1,1.74,1.73,4.77,4.77,0,0,1,.63,2.42,4.49,4.49,0,0,1-1.38,3.31,4.76,4.76,0,0,1-8.11-3.31Zm2.13,0a2.3,2.3,0,0,0,.73,1.75,2.61,2.61,0,0,0,1.88.71,2.67,2.67,0,0,0,1.91-.7,2.31,2.31,0,0,0,.73-1.76,2.39,2.39,0,0,0-.74-1.77,2.92,2.92,0,0,0-3.78,0A2.34,2.34,0,0,0,391.58,56.55Z" transform="translate(-22.25 -8.95)"/><path class="cls-5" d="M389.68,50V47.7h1a3.88,3.88,0,0,1-1-1.29,3.77,3.77,0,0,1-.31-1.55,2.85,2.85,0,0,1,.41-1.53,3,3,0,0,1,1.21-1.09,3.74,3.74,0,0,1-1.21-1.33,3.54,3.54,0,0,1-.41-1.71,3.2,3.2,0,0,1,.45-1.7,2.61,2.61,0,0,1,1.16-1,6.37,6.37,0,0,1,2.35-.32h5.3v2.29h-4.58a3.85,3.85,0,0,0-2.08.38,1.28,1.28,0,0,0-.55,1.14,1.73,1.73,0,0,0,.34,1,1.93,1.93,0,0,0,.91.69,5.72,5.72,0,0,0,1.88.22h4.08v2.28h-4.38a6.06,6.06,0,0,0-1.75.18,1.61,1.61,0,0,0-.81.54,1.38,1.38,0,0,0-.27.86,1.74,1.74,0,0,0,.34,1,2,2,0,0,0,.94.69,5.91,5.91,0,0,0,1.91.23h4V50Z" transform="translate(-22.25 -8.95)"/><path class="cls-2" d="M352.36,26.25c-2.07.19-3.1,1.05-3.1,2.59A6.89,6.89,0,0,0,351.17,33a35,35,0,0,0,3.55,3.42h7.65A12.31,12.31,0,0,0,359,29.52C356.82,27.09,354.6,26,352.36,26.25Z" transform="translate(-22.25 -8.95)"/><path class="cls-3" d="M158.16,28.4l6.92,7.94h13.66L166.17,23.17a11.49,11.49,0,0,0-5-2.94A20,20,0,0,0,155,19.15a19.57,19.57,0,0,0-7.46,1.31v5.42a6,6,0,0,1,3.28-.94C153.21,24.94,155.67,26.1,158.16,28.4Z" transform="translate(-22.25 -8.95)"/><path class="cls-3" d="M374.33,36.43s-4.62-9.21-11.5-13.17c-3.87-2.22-7.71-3.74-12-3.74a16.73,16.73,0,0,0-8.38,2,8,8,0,0,0-4.19,7.19,10.93,10.93,0,0,0,3.55,7.75H121.84V42h15.4q4.44,2,4.44,7.75a8.35,8.35,0,0,1-2.45,6.36,8.93,8.93,0,0,1-6.43,2.33,22.85,22.85,0,0,1-10-2.8v8.78h1.46q3,0,6.56,5.7c3.58,5.67,6,9.18,7.28,10.56a17.34,17.34,0,0,0,12.93,5.69,28,28,0,0,0,9-1.68l2.46-8q-5,3-7.92,3-4.19,0-8.65-8.22-2.46-4.48-2.73-4.86A10.06,10.06,0,0,0,138,63.15a24.48,24.48,0,0,0,10.74-2.61q5.55-3.09,5.56-9.07a11.84,11.84,0,0,0-1.64-5.88A6.82,6.82,0,0,0,148.42,42H167.9V83h11.66V42H226.9v5.42H200.31v5.79h5.33a7.53,7.53,0,0,1,4.15,4.67,29.75,29.75,0,0,1,.81,6.63,14.74,14.74,0,0,1-1.9,8.22,7.41,7.41,0,0,1-6.72,4q-7.8,0-11.25-12.05l-5.8,10.18a18.94,18.94,0,0,0,8.74,7.2q4.19,1.68,11.29,1.59a19,19,0,0,0,12.88-5,16.1,16.1,0,0,0,5.42-12.48q0-7.65-6.38-13h10V83H239V42H258.4q7.1,2.9,6.92,18Q265.23,73.61,260,73.8t-5.19-7.1A7.24,7.24,0,0,1,257,61,7.12,7.12,0,0,1,263,59.41L260,54c-4.55-.25-8.14.62-10.74,2.61q-4.47,3.27-4.37,10.09.09,6.54,4.28,10.09c2.6,2.24,6.1,3.34,10.46,3.27q16.57-.37,16.58-21,0-14.67-6.83-17h10V83h11.84V42h7.92V83h11.65V42h20.23q4.44,2,4.44,7.75a8.39,8.39,0,0,1-2.44,6.36,9,9,0,0,1-6.44,2.33,22.81,22.81,0,0,1-10-2.8v8.78h1.46q3,0,6.55,5.7c3.58,5.67,6,9.18,7.28,10.56a17.37,17.37,0,0,0,12.93,5.69,28.09,28.09,0,0,0,9-1.68l2.46-8c-3.34,2-6,3-7.93,3q-4.19,0-8.65-8.22-2.44-4.48-2.73-4.86a10.06,10.06,0,0,0-5.19-3.46,24.56,24.56,0,0,0,10.75-2.61q5.55-3.09,5.55-9.07a11.74,11.74,0,0,0-1.64-5.88A6.82,6.82,0,0,0,342.25,42h20.67V83h11.65V42H381V36.43Zm-13.78,0h-5.83A35,35,0,0,1,351.17,33a6.89,6.89,0,0,1-1.91-4.17c0-1.54,1-2.4,3.1-2.59,2.24-.25,4.46.84,6.64,3.27a12.31,12.31,0,0,1,3.37,6.91Z" transform="translate(-22.25 -8.95)"/><path class="cls-3" d="M148.72,99.78v1.62h-1.89v11.82h-3.32v-1.37a4.9,4.9,0,0,1-3.08,1,9,9,0,0,1-4.47-1.31,9.12,9.12,0,0,1-3.41-3.2v-3.16a7.26,7.26,0,0,0,3.24.95,2.69,2.69,0,0,0,1.94-.72,2.69,2.69,0,0,0,.32-3.35,1.35,1.35,0,0,0-1.18-.63h-4.7V99.78ZM141,101.4a2.68,2.68,0,0,1,1.05,2.4,3.69,3.69,0,0,1-1.45,3.08,5.35,5.35,0,0,1-3.35,1,8.07,8.07,0,0,1-1.16-.09,6.53,6.53,0,0,0,2,2.06,4.79,4.79,0,0,0,2.61.86,3.21,3.21,0,0,0,2.81-1.62V101.4Z" transform="translate(-22.25 -8.95)"/><path class="cls-3" d="M156.47,111.39l-.7-1.51q1.56-.06,1.56-1.14a1.25,1.25,0,0,0-.78-1.13,3.39,3.39,0,0,0-1.43-.35q-3.13-.06-3.3,2.52a2.7,2.7,0,0,0,1.19,2.55,4.76,4.76,0,0,0,2.81.76,7.2,7.2,0,0,0,5-1.86l-.65,2.8a17.35,17.35,0,0,1-5.31.92,8.73,8.73,0,0,1-4.41-1.08,4,4,0,0,1-2.29-3.64,3.65,3.65,0,0,1,2.54-3.51c-1.26-.18-1.92-.71-2-1.59a2.07,2.07,0,0,1,1.1-2.08,4.82,4.82,0,0,1,2.46-.57h3.91V101.4h-8V99.78h14.23v1.62h-2.73v2.7h-6.21c-.65,0-1,.26-1,.77s.23.66.7.82a16.8,16.8,0,0,1,2.47-.19c3.2,0,4.91,1,5.15,2.89a2.31,2.31,0,0,1-1.46,2.27,5.25,5.25,0,0,1-2.57.76A1.51,1.51,0,0,1,156.47,111.39Z" transform="translate(-22.25 -8.95)"/><path class="cls-3" d="M163,113.22V101.4h-1V99.78h6.34v1.62H166.4v11.82Z" transform="translate(-22.25 -8.95)"/><path class="cls-3" d="M164.14,97.38a2,2,0,0,0,.81.18,2.18,2.18,0,0,0,1.47-.56,2.88,2.88,0,0,0,.9-1.35v1.94A4,4,0,0,1,164,99.4,2.92,2.92,0,0,1,162.3,99,3.12,3.12,0,0,1,161,97.83l1.81-2.26A2.11,2.11,0,0,0,164.14,97.38Zm1.52-.94a1,1,0,0,0,.31-.74,1,1,0,0,0-.31-.74,1,1,0,0,0-1.48,0,1,1,0,0,0-.31.74,1,1,0,0,0,1.79.74Z" transform="translate(-22.25 -8.95)"/><path class="cls-3" d="M181.71,104.61a2.59,2.59,0,0,0-1.32-.43,1.65,1.65,0,0,0-1.57,1.17,5.09,5.09,0,0,0-.37,2.08,4.3,4.3,0,0,0,.45,2.06,1.71,1.71,0,0,0,1.62,1.09,2.33,2.33,0,0,0,1.33-.43V101.4h-7.27V99.78h19.61v1.62h-8.83v1.7a5,5,0,0,1,2.72-.78,4.6,4.6,0,0,1,3.47,1.38,4.74,4.74,0,0,1,1.31,3.54,5,5,0,0,1-1.67,3.9,5.19,5.19,0,0,1-3.56,1.36,5.62,5.62,0,0,1-.92-.08l-.7-2.33a1.77,1.77,0,0,0,1.25.54,1.58,1.58,0,0,0,1.5-1.21,5.53,5.53,0,0,0,.35-2c0-1.91-.73-2.87-2.14-2.87a3.26,3.26,0,0,0-1.61.46v8.26h-3.51v-1.08a3,3,0,0,1-1.83.36,5.81,5.81,0,0,1-3.85-1.22,4.46,4.46,0,0,1-1.59-3.67,5.66,5.66,0,0,1,1.26-3.82,4.45,4.45,0,0,1,3.58-1.47,6.79,6.79,0,0,1,1.65.21Z" transform="translate(-22.25 -8.95)"/><path class="cls-3" d="M194.67,113.22V101.4h-1V99.78H200v1.62h-1.91v11.82Z" transform="translate(-22.25 -8.95)"/><path class="cls-3" d="M215.89,99.78v1.62H214v11.82h-3.45v-7h-2.22a9.88,9.88,0,0,1-.62,4.26,3.64,3.64,0,0,1-3.45,2.11,4.51,4.51,0,0,1-3.32-1,4.08,4.08,0,0,1-1.22-3.2,4.15,4.15,0,0,1,1-2.88,3.43,3.43,0,0,1,2.72-1.17,4.47,4.47,0,0,1,.95.11l.59,1.79a1.75,1.75,0,0,0-.7-.17,1.32,1.32,0,0,0-1.21.81,3.06,3.06,0,0,0-.35,1.51,3.21,3.21,0,0,0,.35,1.54,1.32,1.32,0,0,0,1.21.87c.65,0,1-.55,1-1.65V101.4h-5.72V99.78Zm-7.56,1.62v3h2.22v-3Z" transform="translate(-22.25 -8.95)"/><path class="cls-3" d="M235.5,101.4h-5.43a2,2,0,0,1,1.27,1,3.41,3.41,0,0,1,.48,1.71,2.81,2.81,0,0,1-1.64,2.61,7.39,7.39,0,0,1-3.19.76,3,3,0,0,1,1.54,1c.05.07.32.54.81,1.4.88,1.59,1.74,2.38,2.57,2.38a5.22,5.22,0,0,0,2.34-.86l-.72,2.32a8.69,8.69,0,0,1-2.68.48,5.22,5.22,0,0,1-3.83-1.64,27.55,27.55,0,0,1-2.16-3q-1.05-1.65-2-1.65h-.43v-2.54a6.93,6.93,0,0,0,3,.81,2.7,2.7,0,0,0,1.91-.67,2.41,2.41,0,0,0,.72-1.84,2.2,2.2,0,0,0-1.32-2.24h-4.56V99.78H235.5Z" transform="translate(-22.25 -8.95)"/><path class="cls-3" d="M248.75,104.61a2.59,2.59,0,0,0-1.32-.43,1.65,1.65,0,0,0-1.57,1.17,5.09,5.09,0,0,0-.37,2.08,4.3,4.3,0,0,0,.45,2.06,1.71,1.71,0,0,0,1.62,1.09,2.33,2.33,0,0,0,1.33-.43V101.4h-7.26V99.78h19.6v1.62H252.4v1.7a5,5,0,0,1,2.73-.78,4.59,4.59,0,0,1,3.46,1.38,4.74,4.74,0,0,1,1.31,3.54,5,5,0,0,1-1.67,3.9,5.19,5.19,0,0,1-3.56,1.36,5.62,5.62,0,0,1-.92-.08l-.7-2.33a1.77,1.77,0,0,0,1.25.54,1.58,1.58,0,0,0,1.5-1.21,5.53,5.53,0,0,0,.35-2c0-1.91-.73-2.87-2.14-2.87a3.26,3.26,0,0,0-1.61.46v8.26h-3.51v-1.08a3,3,0,0,1-1.83.36,5.81,5.81,0,0,1-3.85-1.22,4.46,4.46,0,0,1-1.58-3.67,5.65,5.65,0,0,1,1.25-3.82,4.45,4.45,0,0,1,3.58-1.47,6.79,6.79,0,0,1,1.65.21Z" transform="translate(-22.25 -8.95)"/><path class="cls-3" d="M261.71,113.22V101.4h-1V99.78h6.34v1.62h-1.91v11.82Z" transform="translate(-22.25 -8.95)"/><path class="cls-3" d="M282.93,99.78v1.62H281v11.82h-3.45v-7h-2.21a10,10,0,0,1-.63,4.26,3.64,3.64,0,0,1-3.45,2.11,4.51,4.51,0,0,1-3.32-1,4.08,4.08,0,0,1-1.22-3.2,4.15,4.15,0,0,1,1-2.88,3.43,3.43,0,0,1,2.72-1.17,4.47,4.47,0,0,1,.95.11l.59,1.79a1.75,1.75,0,0,0-.7-.17,1.32,1.32,0,0,0-1.21.81,3.06,3.06,0,0,0-.35,1.51,3.21,3.21,0,0,0,.35,1.54,1.32,1.32,0,0,0,1.21.87c.65,0,1-.55,1-1.65V101.4H266.6V99.78Zm-7.55,1.62v3h2.21v-3Z" transform="translate(-22.25 -8.95)"/><path class="cls-3" d="M293.55,111.39a2.43,2.43,0,0,0,2.32.78l-2.51,2.67-1.19-.78a2.61,2.61,0,0,1-.62-1.54,13.55,13.55,0,0,1-2.43.25,7,7,0,0,1-4.43-1.38,4.84,4.84,0,0,1,.88-8.16,10.38,10.38,0,0,1,5.09-.86v-1h-8.18V99.78h14.31v1.62h-2.68v2.94a17.19,17.19,0,0,0-2.72-.24,7.41,7.41,0,0,0-3.27.65,2.8,2.8,0,0,0-1.73,2.6,3.34,3.34,0,0,0,1,2.51,3.44,3.44,0,0,0,2.5,1,3.81,3.81,0,0,0,.59-.05,2.42,2.42,0,0,1-.67-1.74,2.78,2.78,0,0,1,.77-2,2.61,2.61,0,0,1,3.63,0,2.42,2.42,0,0,1,.62,1.72A2.87,2.87,0,0,1,293.55,111.39Z" transform="translate(-22.25 -8.95)"/><path class="cls-3" d="M297.27,113.22V101.4h-1V99.78h6.34v1.62h-1.91v11.82Z" transform="translate(-22.25 -8.95)"/><path class="cls-3" d="M315.47,101.4H310a2,2,0,0,1,1.27,1,3.42,3.42,0,0,1,.49,1.71,2.81,2.81,0,0,1-1.65,2.61,7.39,7.39,0,0,1-3.19.76,3,3,0,0,1,1.54,1c.06.07.33.54.81,1.4.89,1.59,1.74,2.38,2.57,2.38a5.25,5.25,0,0,0,2.35-.86l-.73,2.32a8.63,8.63,0,0,1-2.67.48,5.23,5.23,0,0,1-3.84-1.64,27.55,27.55,0,0,1-2.16-3c-.7-1.1-1.35-1.65-1.94-1.65h-.43v-2.54a6.89,6.89,0,0,0,3,.81,2.7,2.7,0,0,0,1.91-.67,2.41,2.41,0,0,0,.72-1.84,2.19,2.19,0,0,0-1.31-2.24h-4.57V99.78h13.31Z" transform="translate(-22.25 -8.95)"/><path class="cls-3" d="M322.84,108V101.4H321.6V99.78h13.71v1.62h-1.89v11.82h-3.26v-1.86a4.31,4.31,0,0,1-2.81,1,4.5,4.5,0,0,1-3.21-1.21A4.09,4.09,0,0,1,322.84,108Zm7.32.89V101.4h-3.92v6.29c0,1.49.67,2.24,2,2.24A1.81,1.81,0,0,0,330.16,108.88Z" transform="translate(-22.25 -8.95)"/><path class="cls-3" d="M335.8,113.22V101.4h-1V99.78h6.34v1.62h-1.92v11.82Z" transform="translate(-22.25 -8.95)"/><path class="cls-3" d="M351.59,101.4v2.46h-6a.75.75,0,0,0-.86.85c0,.56.32.85,1,.85h3.09a3.15,3.15,0,0,1,2.24.91,3,3,0,0,1,1,2.19q0,3.95-6.05,4.24c-.25,0-.11.13.43.32s.82.27,1.22.38a6.91,6.91,0,0,0,1.75.25,5.1,5.1,0,0,0,1.19-.14l-3.1,2.51a9.92,9.92,0,0,1-3.08-2,8.47,8.47,0,0,0-3.16-1.83l-.08-3a6.54,6.54,0,0,0,4.09,1.62,4.27,4.27,0,0,0,2.58-.89,1.2,1.2,0,0,0,.51-1,1.84,1.84,0,0,0-.49-1.2,1.39,1.39,0,0,0-1.08-.59h-2.12a4.41,4.41,0,0,1-2.27-.54,2.09,2.09,0,0,1-1.11-1.92q0-2.64,3.56-2.64h3.51v-.84h-7.61V99.78h13.17v1.62Z" transform="translate(-22.25 -8.95)"/><path class="cls-3" d="M351.67,99.78h-3.45a2.37,2.37,0,0,1-.54-2A2.3,2.3,0,0,1,350,95.49a6.84,6.84,0,0,1,2.67.21l.38,1.92a2.06,2.06,0,0,0-1.16-.46.81.81,0,0,0-.81.7,2.93,2.93,0,0,0-.11.7A1.27,1.27,0,0,0,351.67,99.78Z" transform="translate(-22.25 -8.95)"/><path class="cls-3" d="M353.38,101.4V99.78h12.5v1.62Zm12.25,4.16a5.28,5.28,0,0,0-3.83-1.35,6.63,6.63,0,0,0-1.3.11,3.39,3.39,0,0,1,2.43,3.41q0,4.6-4.32,4.71a4.48,4.48,0,0,1-3.45-1.27,4.67,4.67,0,0,1-1.33-3.45,4.8,4.8,0,0,1,3.57-4.81,9.86,9.86,0,0,1,3.4-.57,10.27,10.27,0,0,1,4.83,1.19Zm-6.75.21,1.46-1.21c-1.64,0-2.49,1.09-2.56,3.16a3.39,3.39,0,0,0,.27,1.48c.23.61.58.92,1.05.92.79,0,1.16-.77,1.11-2.32s-.34-2.11-.92-2.11A1.29,1.29,0,0,0,358.88,105.77Z" transform="translate(-22.25 -8.95)"/><path class="cls-3" d="M364.63,101.4V99.78H367v.84q1.22-.9,5.32-.84v2a2.85,2.85,0,0,0-1.11-.24,2.32,2.32,0,0,0-1.35.45,1.36,1.36,0,0,0-.67,1.12c0,1,.49,1.54,1.59,1.54a2.5,2.5,0,0,0,1.24-.3v2.1a2.41,2.41,0,0,0-3.1,2.25q0,2.43,2.94,2.43c1.91,0,3-.27,3.29-.81a2.75,2.75,0,0,1-1.75-1.49,4.84,4.84,0,0,1-.54-2.29,4.47,4.47,0,0,1,.73-2.56,3.46,3.46,0,0,1,2.1-1.44V101.4h-2.32V99.78H383.7v1.62h-4.49v1.16a3.11,3.11,0,0,1,1.92,1.57,5.08,5.08,0,0,1,.6,2.48,4.9,4.9,0,0,1-.68,2.56,4.11,4.11,0,0,1-2,1.76,3.33,3.33,0,0,0,1.94.51,10.07,10.07,0,0,0,1.89-.21l-1.83,2.83a5.91,5.91,0,0,1-4.08-2,6.55,6.55,0,0,1-2.59.78,17.12,17.12,0,0,1-2.78.25,11.14,11.14,0,0,1-4.46-.81,3.61,3.61,0,0,1-2.54-3.38,3.07,3.07,0,0,1,1-2.13,2.42,2.42,0,0,1,2.08-.87,2.57,2.57,0,0,1-1.9-.66,2.38,2.38,0,0,1-.74-1.85,2.74,2.74,0,0,1,.83-2Zm12.83,3c-.34,0-.59.4-.76,1.21a7.36,7.36,0,0,0-.19,1.6c0,1.56.33,2.31,1,2.24q.72,0,.72-2.22a9.47,9.47,0,0,0-.13-1.56C377.94,104.79,377.73,104.37,377.46,104.37Z" transform="translate(-22.25 -8.95)"/><path class="cls-3" d="M393.61,113.22V99.78h3v13.44Z" transform="translate(-22.25 -8.95)"/></svg>